<svg width="45" height="45" viewBox="0 0 45 45" fill="none" xmlns="http://www.w3.org/2000/svg">
<g id="Frame 811452">
<g id="Group 24192">
<path id="Exclude" fill-rule="evenodd" clip-rule="evenodd" d="M14.5 3.5C12.2909 3.5 10.5 5.29086 10.5 7.5V38.5C10.5 40.7091 12.2909 42.5 14.5 42.5H29.6356C31.8447 42.5 33.6356 40.7091 33.6356 38.5V7.5C33.6356 5.29086 31.8447 3.5 29.6356 3.5H14.5ZM22.3989 40.5174C23.4941 40.5174 24.3819 39.6295 24.3819 38.5343C24.3819 37.4391 23.4941 36.5513 22.3989 36.5513C21.3036 36.5513 20.4158 37.4391 20.4158 38.5343C20.4158 39.6295 21.3036 40.5174 22.3989 40.5174Z" fill="url(#paint0_linear_8_4074)"/>
<rect id="Rectangle 6818" x="12.4824" y="5.48242" width="19.1695" height="29.7458" rx="4" fill="#F1F1F1" fill-opacity="0.44"/>
</g>
</g>
<defs>
<linearGradient id="paint0_linear_8_4074" x1="13.9704" y1="9.82434" x2="33.9533" y2="28.1549" gradientUnits="userSpaceOnUse">
<stop stop-color="#49C3B1"/>
<stop offset="1" stop-color="#0071A3"/>
</linearGradient>
</defs>
</svg>
