<svg width="25" height="25" viewBox="0 0 25 25" fill="none" xmlns="http://www.w3.org/2000/svg">
<path d="M12.5 2.94421C6.95312 2.94421 2.5 7.4364 2.5 12.9442C2.5 18.4911 6.95312 22.9442 12.5 22.9442C18.0078 22.9442 22.5 18.4911 22.5 12.9442C22.5 7.4364 18.0078 2.94421 12.5 2.94421ZM12.5 21.0692C8.00781 21.0692 4.375 17.4364 4.375 12.9442C4.375 8.49109 8.00781 4.81921 12.5 4.81921C16.9531 4.81921 20.625 8.49109 20.625 12.9442C20.625 17.4364 16.9531 21.0692 12.5 21.0692ZM16.4844 14.1942L13.4375 12.4364V7.63171C13.4375 7.1239 13.0078 6.69421 12.5 6.69421C11.9531 6.69421 11.5625 7.1239 11.5625 7.63171V12.9442C11.5625 13.2958 11.7188 13.6083 12.0312 13.7645L15.5469 15.7958C15.6641 15.8739 15.8203 15.913 16.0156 15.913C16.3281 15.913 16.6406 15.7567 16.7969 15.4442C17.0703 15.0145 16.9141 14.4286 16.4844 14.1942Z" fill="#008767"/>
</svg>
