<svg width="279" height="208" viewBox="0 0 279 208" fill="none" xmlns="http://www.w3.org/2000/svg">
<path d="M279 182.745H0V182.885H279V182.745Z" fill="#EBEBEB"/>
<path d="M251.044 191.723H232.563V191.863H251.044V191.723Z" fill="#EBEBEB"/>
<path d="M184.821 193.241H179.972V193.38H184.821V193.241Z" fill="#EBEBEB"/>
<path d="M232.005 186.545H221.297V186.684H232.005V186.545Z" fill="#EBEBEB"/>
<path d="M53.373 187.482H29.2729V187.622H53.373V187.482Z" fill="#EBEBEB"/>
<path d="M61.8766 187.482H58.3445V187.622H61.8766V187.482Z" fill="#EBEBEB"/>
<path d="M125.634 189.837H73.3604V189.977H125.634V189.837Z" fill="#EBEBEB"/>
<path d="M132.246 157.858H24.5019C23.6578 157.857 22.8488 157.52 22.2525 156.923C21.6562 156.326 21.3213 155.516 21.3213 154.672V3.21407C21.3286 2.37485 21.6668 1.57242 22.2623 0.981072C22.8578 0.389726 23.6626 0.0572238 24.5019 0.0557861H132.246C133.091 0.0557861 133.902 0.391472 134.499 0.988997C135.097 1.58652 135.432 2.39694 135.432 3.24197V154.672C135.432 155.517 135.097 156.327 134.499 156.925C133.902 157.523 133.091 157.858 132.246 157.858ZM24.5019 0.167387C23.6948 0.168865 22.9213 0.490505 22.3512 1.06171C21.781 1.63291 21.4608 2.407 21.4608 3.21407V154.672C21.4608 155.479 21.781 156.253 22.3512 156.824C22.9213 157.396 23.6948 157.717 24.5019 157.719H132.246C133.054 157.717 133.828 157.396 134.399 156.825C134.97 156.254 135.291 155.48 135.293 154.672V3.21407C135.291 2.40649 134.97 1.63241 134.399 1.06137C133.828 0.490323 133.054 0.168862 132.246 0.167387H24.5019Z" fill="#EBEBEB"/>
<path d="M252.946 157.858H145.197C144.352 157.857 143.543 157.521 142.945 156.923C142.348 156.326 142.012 155.517 142.01 154.672V3.21407C142.019 2.37434 142.359 1.57192 142.955 0.980723C143.552 0.389531 144.357 0.0572081 145.197 0.0557861H252.946C253.785 0.0586902 254.588 0.391841 255.182 0.98303C255.777 1.57422 256.114 2.37581 256.122 3.21407V154.672C256.122 155.515 255.787 156.324 255.192 156.921C254.597 157.518 253.79 157.855 252.946 157.858ZM145.197 0.167387C144.389 0.168862 143.615 0.490323 143.044 1.06137C142.473 1.63241 142.151 2.40649 142.15 3.21407V154.672C142.151 155.48 142.473 156.254 143.044 156.825C143.615 157.396 144.389 157.717 145.197 157.719H252.946C253.754 157.717 254.528 157.396 255.099 156.825C255.67 156.254 255.992 155.48 255.993 154.672V3.21407C255.992 2.40649 255.67 1.63241 255.099 1.06137C254.528 0.490323 253.754 0.168862 252.946 0.167387H145.197Z" fill="#EBEBEB"/>
<path d="M70.6485 31.4319H37.3638V81.0492H70.6485V31.4319Z" fill="#E6E6E6"/>
<path d="M70.6481 81.0551H71.1726V31.4378H70.6481V81.0551Z" fill="#E0E0E0"/>
<path d="M68.7678 79.1691V33.3182H39.2496V79.1691H68.7678Z" fill="#FAFAFA"/>
<path d="M59.5898 52.48C62.6711 49.3987 62.6711 44.4029 59.5898 41.3216C56.5085 38.2404 51.5127 38.2404 48.4315 41.3216C45.3502 44.4029 45.3502 49.3987 48.4315 52.48C51.5127 55.5612 56.5085 55.5612 59.5898 52.48Z" fill="#F0F0F0"/>
<path d="M63.7401 59.3547H44.2715V61.3467H63.7401V59.3547Z" fill="#EBEBEB"/>
<path d="M63.7401 64.6556H44.2715V66.6477H63.7401V64.6556Z" fill="#EBEBEB"/>
<path d="M63.7401 69.9509H44.2715V71.943H63.7401V69.9509Z" fill="#EBEBEB"/>
<path d="M112.476 38.5803H79.1917V88.1977H112.476V38.5803Z" fill="#E6E6E6"/>
<path d="M112.476 88.1919H113V38.5746H112.476V88.1919Z" fill="#E0E0E0"/>
<path d="M110.596 86.317V40.4661H81.0775V86.317H110.596Z" fill="#FAFAFA"/>
<path d="M103.507 55.85C104.508 51.609 101.881 47.3594 97.6402 46.3585C93.3991 45.3575 89.1496 47.9841 88.1486 52.2252C87.1476 56.4662 89.7742 60.7157 94.0153 61.7167C98.2564 62.7177 102.506 60.0911 103.507 55.85Z" fill="#F0F0F0"/>
<path d="M105.568 66.5025H86.0994V68.4945H105.568V66.5025Z" fill="#EBEBEB"/>
<path d="M105.568 71.798H86.0994V73.79H105.568V71.798Z" fill="#EBEBEB"/>
<path d="M105.568 77.0933H86.0994V79.0854H105.568V77.0933Z" fill="#EBEBEB"/>
<path d="M229.857 108.866H84.3921V110.417H229.857V108.866Z" fill="#EBEBEB"/>
<path d="M229.851 110.417H241.631V108.866H229.851V110.417Z" fill="#E0E0E0"/>
<path d="M229.851 110.417H86.3838V182.745H229.851V110.417Z" fill="#F5F5F5"/>
<path d="M118.564 110.417H117.76V182.745H118.564V110.417Z" fill="#E6E6E6"/>
<path d="M156.508 125.126H155.704V182.745H156.508V125.126Z" fill="#E6E6E6"/>
<path d="M118.162 168.438V167.634H86.3893V168.438H118.162Z" fill="#E6E6E6"/>
<path d="M118.162 154.131V153.327H86.3893V154.131H118.162Z" fill="#E6E6E6"/>
<path d="M118.162 139.824V139.02H86.3893V139.824H118.162Z" fill="#E6E6E6"/>
<path d="M229.857 125.528V124.724L86.3898 124.724V125.528L229.857 125.528Z" fill="#E6E6E6"/>
<path d="M229.857 182.745H240.163V110.417H229.857V182.745Z" fill="#EBEBEB"/>
<path d="M232.278 12.1701H181.5V84.4758H232.278V12.1701Z" fill="#FAFAFA"/>
<path d="M232.836 13.0404H180.942C180.828 13.0404 180.715 13.0178 180.61 12.974C180.505 12.9302 180.409 12.866 180.329 12.7851C180.248 12.7042 180.185 12.6082 180.142 12.5026C180.099 12.397 180.077 12.2839 180.077 12.1699C180.077 12.0561 180.099 11.9433 180.142 11.838C180.185 11.7328 180.249 11.6371 180.329 11.5567C180.41 11.4762 180.505 11.4125 180.61 11.3693C180.716 11.3261 180.829 11.3043 180.942 11.305H232.836C232.95 11.3043 233.063 11.3261 233.169 11.3692C233.275 11.4124 233.371 11.4759 233.451 11.5563C233.532 11.6367 233.597 11.7323 233.64 11.8376C233.684 11.9429 233.707 12.0558 233.707 12.1699C233.707 12.4008 233.615 12.6222 233.452 12.7854C233.289 12.9487 233.067 13.0404 232.836 13.0404Z" fill="#EBEBEB"/>
<path d="M232.836 85.3461H180.942C180.828 85.3461 180.715 85.3236 180.61 85.2798C180.505 85.2359 180.409 85.1717 180.329 85.0908C180.248 85.0099 180.185 84.9139 180.142 84.8083C180.099 84.7028 180.077 84.5897 180.077 84.4756C180.077 84.3619 180.099 84.2491 180.142 84.1438C180.185 84.0385 180.249 83.9429 180.329 83.8624C180.41 83.782 180.505 83.7183 180.61 83.6751C180.716 83.6319 180.829 83.61 180.942 83.6108H232.836C232.95 83.61 233.063 83.6318 233.169 83.675C233.275 83.7181 233.371 83.7817 233.451 83.8621C233.532 83.9425 233.597 84.0381 233.64 84.1434C233.684 84.2487 233.707 84.3616 233.707 84.4756C233.707 84.7065 233.615 84.9279 233.452 85.0912C233.289 85.2544 233.067 85.3461 232.836 85.3461Z" fill="#EBEBEB"/>
<path d="M208.792 30.026H204.987C201.723 30.026 199.078 32.6716 199.078 35.9352V47.8317C199.078 51.0953 201.723 53.741 204.987 53.741H208.792C212.056 53.741 214.702 51.0953 214.702 47.8317V35.9352C214.702 32.6716 212.056 30.026 208.792 30.026Z" fill="#F0F0F0"/>
<path d="M202.426 77.8301C201.538 77.8301 200.686 77.4773 200.058 76.8495C199.43 76.2216 199.078 75.37 199.078 74.4821V49.1879C199.078 48.3 199.43 47.4484 200.058 46.8205C200.686 46.1927 201.538 45.8399 202.426 45.8399C203.314 45.8399 204.165 46.1927 204.793 46.8205C205.421 47.4484 205.774 48.3 205.774 49.1879V74.4821C205.774 75.37 205.421 76.2216 204.793 76.8495C204.165 77.4773 203.314 77.8301 202.426 77.8301Z" fill="#F0F0F0"/>
<path d="M195.897 32.8996H195.892C194.788 32.8996 193.894 33.794 193.894 34.8972V50.0079C193.894 51.1111 194.788 52.0055 195.892 52.0055H195.897C197.001 52.0055 197.895 51.1111 197.895 50.0079V34.8972C197.895 33.794 197.001 32.8996 195.897 32.8996Z" fill="#F0F0F0"/>
<path d="M217.888 52.0111C217.358 52.0082 216.851 51.796 216.477 51.4208C216.103 51.0456 215.892 50.5377 215.89 50.0079V34.9028C215.892 34.3729 216.103 33.8651 216.477 33.4899C216.851 33.1147 217.358 32.9025 217.888 32.8996C218.418 32.9025 218.926 33.1145 219.301 33.4896C219.676 33.8646 219.888 34.3724 219.891 34.9028V50.0079C219.888 50.5383 219.676 51.0461 219.301 51.4211C218.926 51.7962 218.418 52.0082 217.888 52.0111Z" fill="#F0F0F0"/>
<path d="M211.354 77.8301C210.466 77.8301 209.614 77.4773 208.986 76.8495C208.358 76.2216 208.006 75.37 208.006 74.4821V49.1879C208.006 48.3 208.358 47.4484 208.986 46.8205C209.614 46.1927 210.466 45.8399 211.354 45.8399C212.242 45.8399 213.093 46.1927 213.721 46.8205C214.349 47.4484 214.702 48.3 214.702 49.1879V74.4821C214.702 75.37 214.349 76.2216 213.721 76.8495C213.093 77.4773 212.242 77.8301 211.354 77.8301Z" fill="#F0F0F0"/>
<path d="M210.374 26.3524C212.299 24.4282 212.299 21.3085 210.374 19.3844C208.45 17.4602 205.331 17.4602 203.406 19.3844C201.482 21.3085 201.482 24.4282 203.406 26.3524C205.331 28.2766 208.45 28.2766 210.374 26.3524Z" fill="#F0F0F0"/>
<path d="M212.687 94.7315H189.312V108.866H212.687V94.7315Z" fill="#F5F5F5"/>
<path d="M212.687 108.866H218.446V94.7314H212.687V108.866Z" fill="#EBEBEB"/>
<path d="M205.467 100.446H202.348V97.332H199.652V100.446H196.539V103.146H199.652V106.26H202.348V103.146H205.467V100.446Z" fill="white"/>
<path d="M168.845 108.866H166.613V83.862C166.613 82.7548 166.395 81.6584 165.972 80.6355C165.548 79.6125 164.927 78.683 164.144 77.9001C163.361 77.1172 162.431 76.4961 161.408 76.0724C160.386 75.6487 159.289 75.4306 158.182 75.4306C157.075 75.4306 155.978 75.6487 154.955 76.0724C153.932 76.4961 153.003 77.1172 152.22 77.9001C151.437 78.683 150.816 79.6125 150.392 80.6355C149.969 81.6584 149.751 82.7548 149.751 83.862H147.519C147.519 81.0339 148.642 78.3216 150.642 76.3219C152.642 74.3221 155.354 73.1986 158.182 73.1986C161.01 73.1986 163.722 74.3221 165.722 76.3219C167.722 78.3216 168.845 81.0339 168.845 83.862V108.866Z" fill="#EBEBEB"/>
<path d="M173.002 105.205H170.77V108.866H173.002V105.205Z" fill="#EBEBEB"/>
<path d="M102.019 107.566H99.7874V108.866H102.019V107.566Z" fill="#EBEBEB"/>
<path d="M98.0628 107.566H95.8308V108.866H98.0628V107.566Z" fill="#EBEBEB"/>
<path d="M76.8981 141.938H47.843V182.745H76.8981V141.938Z" fill="#F5F5F5"/>
<path d="M75.7651 140.917H48.97V141.944H75.7651V140.917Z" fill="#E6E6E6"/>
<path d="M57.0444 131.71H67.6911C70.1329 131.71 72.4748 132.68 74.2014 134.407C75.9281 136.134 76.8981 138.475 76.8981 140.917H47.843C47.8423 139.708 48.0797 138.511 48.5418 137.394C49.0039 136.277 49.6816 135.262 50.5361 134.407C51.3906 133.552 52.4052 132.874 53.5219 132.411C54.6386 131.948 55.8356 131.71 57.0444 131.71Z" fill="#F5F5F5"/>
<path d="M51.7044 178.27H48.6298C47.4458 178.27 46.3104 178.74 45.4732 179.577C44.6361 180.414 44.1658 181.55 44.1658 182.734H56.1963C56.1963 182.145 56.0799 181.563 55.8538 181.019C55.6277 180.476 55.2964 179.982 54.8789 179.567C54.4614 179.153 53.966 178.824 53.4212 178.602C52.8764 178.379 52.2929 178.266 51.7044 178.27Z" fill="#E6E6E6"/>
<path d="M139.5 207.944C199.252 207.944 247.69 205.116 247.69 201.628C247.69 198.139 199.252 195.311 139.5 195.311C79.7477 195.311 31.3091 198.139 31.3091 201.628C31.3091 205.116 79.7477 207.944 139.5 207.944Z" fill="#F5F5F5"/>
<path d="M106.975 50.9063L104.442 47.8038L100.904 50.0358C100.904 50.0358 102.522 51.7656 104.486 54.1818L106.975 50.9063Z" fill="#B55B52"/>
<path d="M138.563 51.1573C138.418 51.4698 138.317 51.6595 138.195 51.8995L137.843 52.5691C137.603 53.0099 137.369 53.4451 137.118 53.8748C136.627 54.7304 136.111 55.5711 135.572 56.3969C134.488 58.0879 133.291 59.7042 131.99 61.2348C130.611 62.8683 129.058 64.3465 127.358 65.643C126.418 66.3379 125.417 66.9467 124.367 67.4621L123.525 67.8359L122.638 68.1652C122.342 68.2712 122.024 68.3493 121.711 68.4386L121.477 68.5055L121.142 68.5781C120.897 68.6283 120.657 68.6618 120.422 68.6897C119.569 68.7734 118.707 68.7282 117.867 68.5558C117.178 68.4205 116.504 68.2206 115.852 67.9587C114.766 67.514 113.727 66.9626 112.75 66.3126C111.059 65.1723 109.467 63.8918 107.99 62.4847C106.556 61.1511 105.228 59.7728 103.956 58.3667C103.32 57.658 102.689 56.9549 102.075 56.2295C101.462 55.5041 100.876 54.8066 100.24 53.9975L106.411 49.2099C106.891 49.8181 107.466 50.5156 108.018 51.1573C108.57 51.799 109.134 52.4575 109.726 53.088C110.897 54.3435 112.097 55.5544 113.33 56.6648C114.492 57.7315 115.745 58.695 117.074 59.5441C117.603 59.8825 118.164 60.1684 118.748 60.3978C119.228 60.5819 119.585 60.5764 119.479 60.5485H119.424L119.518 60.5206C119.641 60.4703 119.758 60.4424 119.887 60.3922L120.261 60.2304L120.651 60.0351C121.209 59.726 121.739 59.3694 122.236 58.9693C123.376 58.0205 124.404 56.9439 125.299 55.7608C126.278 54.4867 127.168 53.1461 127.961 51.7488C128.37 51.0346 128.755 50.3092 129.116 49.5726C129.3 49.2099 129.479 48.8416 129.674 48.4566L129.92 47.8986C129.992 47.7312 130.087 47.5136 130.126 47.4131L138.563 51.1573Z" fill="#0071A3"/>
<path opacity="0.8" d="M138.563 51.1573C138.418 51.4698 138.317 51.6595 138.195 51.8995L137.843 52.5691C137.603 53.0099 137.369 53.4451 137.118 53.8748C136.627 54.7304 136.111 55.5711 135.572 56.3969C134.488 58.0879 133.291 59.7042 131.99 61.2348C130.611 62.8683 129.058 64.3465 127.358 65.643C126.418 66.3379 125.417 66.9467 124.367 67.4621L123.525 67.8359L122.638 68.1652C122.342 68.2712 122.024 68.3493 121.711 68.4386L121.477 68.5055L121.142 68.5781C120.897 68.6283 120.657 68.6618 120.422 68.6897C119.569 68.7734 118.707 68.7282 117.867 68.5558C117.178 68.4205 116.504 68.2206 115.852 67.9587C114.766 67.514 113.727 66.9626 112.75 66.3126C111.059 65.1723 109.467 63.8918 107.99 62.4847C106.556 61.1511 105.228 59.7728 103.956 58.3667C103.32 57.658 102.689 56.9549 102.075 56.2295C101.462 55.5041 100.876 54.8066 100.24 53.9975L106.411 49.2099C106.891 49.8181 107.466 50.5156 108.018 51.1573C108.57 51.799 109.134 52.4575 109.726 53.088C110.897 54.3435 112.097 55.5544 113.33 56.6648C114.492 57.7315 115.745 58.695 117.074 59.5441C117.603 59.8825 118.164 60.1684 118.748 60.3978C119.228 60.5819 119.585 60.5764 119.479 60.5485H119.424L119.518 60.5206C119.641 60.4703 119.758 60.4424 119.887 60.3922L120.261 60.2304L120.651 60.0351C121.209 59.726 121.739 59.3694 122.236 58.9693C123.376 58.0205 124.404 56.9439 125.299 55.7608C126.278 54.4867 127.168 53.1461 127.961 51.7488C128.37 51.0346 128.755 50.3092 129.116 49.5726C129.3 49.2099 129.479 48.8416 129.674 48.4566L129.92 47.8986C129.992 47.7312 130.087 47.5136 130.126 47.4131L138.563 51.1573Z" fill="white"/>
<path d="M137.324 140.337H155.336L148.507 106.198H139.685L137.324 140.337Z" fill="#0071A3"/>
<path opacity="0.6" d="M137.324 140.337H155.336L148.507 106.198H139.685L137.324 140.337Z" fill="white"/>
<path d="M141.186 196.527H136.593L136.398 185.897H140.991L141.186 196.527Z" fill="#B55B52"/>
<path d="M166.614 196.527H162.021L159.973 185.897H164.566L166.614 196.527Z" fill="#B55B52"/>
<path d="M161.709 195.997H166.843C166.933 195.997 167.021 196.028 167.091 196.085C167.161 196.142 167.209 196.221 167.228 196.31L168.031 200.389C168.049 200.489 168.045 200.593 168.018 200.691C167.992 200.79 167.944 200.882 167.878 200.96C167.811 201.037 167.729 201.1 167.636 201.142C167.543 201.184 167.441 201.205 167.339 201.204C165.542 201.176 164.672 201.07 162.401 201.07C161.006 201.07 158.127 201.215 156.201 201.215C154.276 201.215 154.07 199.312 154.862 199.139C158.417 198.363 159.778 197.297 160.933 196.276C161.15 196.093 161.425 195.994 161.709 195.997Z" fill="#263238"/>
<path d="M136.638 195.997H141.66C141.75 195.997 141.837 196.028 141.906 196.085C141.975 196.142 142.022 196.222 142.039 196.31L142.848 200.378C142.867 200.478 142.864 200.581 142.838 200.679C142.813 200.778 142.766 200.869 142.701 200.948C142.636 201.026 142.554 201.089 142.462 201.132C142.37 201.176 142.269 201.198 142.168 201.198C140.36 201.164 137.748 201.058 135.472 201.058C132.815 201.058 132.598 201.203 129.484 201.203C127.598 201.203 127.124 199.301 127.916 199.128C131.527 198.341 132.38 198.257 135.527 196.338C135.86 196.125 136.244 196.007 136.638 195.997Z" fill="#263238"/>
<path d="M102.728 46.7435L99.7597 46.6988L99.2017 50.5267C101.092 50.8721 103.041 50.6788 104.826 49.9687L104.776 48.7244C104.753 48.1948 104.528 47.6941 104.147 47.3256C103.766 46.9571 103.258 46.7487 102.728 46.7435Z" fill="#B55B52"/>
<path d="M95.1174 46.8774L95.6922 49.2935L99.1908 50.5267L99.76 46.6988L95.1174 46.8774Z" fill="#B55B52"/>
<path opacity="0.2" d="M136.398 185.903L136.499 191.383H141.091L140.991 185.903H136.398Z" fill="black"/>
<path opacity="0.2" d="M164.566 185.903H159.973L161.034 191.383H165.626L164.566 185.903Z" fill="black"/>
<path d="M130.98 48.3056C129.707 53.1713 127.425 65.4473 129.919 84.9718H154.471C154.711 81.5512 153.149 66.0779 155.911 49.9684C156.027 49.3126 156.008 48.6398 155.854 47.9917C155.701 47.3436 155.416 46.7339 155.018 46.2001C154.619 45.6663 154.116 45.2197 153.538 44.888C152.96 44.5563 152.321 44.3464 151.659 44.2712C150.705 44.1652 149.695 44.0759 148.696 44.0257C145.265 43.9303 141.83 44.0421 138.412 44.3605C136.954 44.4997 135.511 44.7648 134.099 45.1529C133.347 45.3569 132.663 45.756 132.115 46.3096C131.567 46.8633 131.176 47.5518 130.98 48.3056Z" fill="white"/>
<path d="M147.569 34.2664C146.827 37.6144 146.397 41.7826 148.685 44.0258C148.685 44.0258 147.251 47.4296 141.013 47.4296C135.31 47.4296 138.223 44.0258 138.223 44.0258C141.989 43.133 141.911 38.5016 141.319 35.8902L147.569 34.2664Z" fill="#B55B52"/>
<path d="M140.728 46.9665L139.378 48.4564C139.33 48.5079 139.297 48.5714 139.282 48.6402C139.267 48.7089 139.271 48.7804 139.294 48.847L139.724 50.1639C139.748 50.2377 139.794 50.3025 139.855 50.3494C139.917 50.3963 139.992 50.423 140.07 50.4261L141.526 50.4987C141.595 50.5016 141.664 50.4867 141.725 50.4555C141.787 50.4242 141.839 50.3776 141.878 50.3201L142.748 49.0423C142.8 48.9733 142.829 48.889 142.829 48.8023C142.829 48.7157 142.8 48.6314 142.748 48.5624L141.342 46.9609C141.305 46.9148 141.258 46.8777 141.205 46.8524C141.151 46.8271 141.093 46.8142 141.034 46.8147C140.974 46.8153 140.916 46.8292 140.863 46.8555C140.81 46.8818 140.764 46.9198 140.728 46.9665Z" fill="#0071A3"/>
<path d="M140.388 50.4152C140.388 50.4152 138.156 66.8427 138.106 69.7052C138.135 72.4086 138.56 75.0931 139.367 77.6735C139.367 77.6735 140.901 74.7719 141.164 69.5825C141.426 64.3931 141.108 53.3279 141.225 50.4152H140.388Z" fill="#0071A3"/>
<path opacity="0.2" d="M141.353 35.8957C141.704 37.4247 141.872 39.6455 141.191 41.4088C141.637 41.6041 143.479 40.8954 144.243 40.41C145.945 39.3274 146.604 38.2672 147.228 36.0073C147.329 35.4103 147.441 34.83 147.569 34.2664L141.353 35.8957Z" fill="black"/>
<path d="M135.527 32.6319C135.732 33.154 136.04 33.6297 136.432 34.0312C136.824 34.4327 137.292 34.7518 137.809 34.9699C139.199 35.5279 140.097 34.3115 139.874 32.8886C139.678 31.6108 138.713 29.7694 137.24 29.8084C136.915 29.8268 136.6 29.9239 136.321 30.0913C136.043 30.2587 135.809 30.4914 135.64 30.7694C135.472 31.0473 135.373 31.3621 135.354 31.6866C135.334 32.0111 135.393 32.3356 135.527 32.6319Z" fill="#B55B52"/>
<path opacity="0.2" d="M135.527 32.6319C135.732 33.154 136.04 33.6297 136.432 34.0312C136.824 34.4327 137.292 34.7518 137.809 34.9699C139.199 35.5279 140.097 34.3115 139.874 32.8886C139.678 31.6108 138.713 29.7694 137.24 29.8084C136.915 29.8268 136.6 29.9239 136.321 30.0913C136.043 30.2587 135.809 30.4914 135.64 30.7694C135.472 31.0473 135.373 31.3621 135.354 31.6866C135.334 32.0111 135.393 32.3356 135.527 32.6319Z" fill="black"/>
<path d="M141.174 27.6043C140.912 29.5684 139.684 31.0304 138.434 30.863C137.184 30.6956 136.386 28.9658 136.654 26.996C136.922 25.0263 138.144 23.5643 139.394 23.7317C140.644 23.8991 141.453 25.6345 141.174 27.6043Z" fill="#263238"/>
<path d="M149.768 29.9142C148.652 34.3782 148.217 37.0343 145.533 38.9649C141.504 41.8721 136.398 38.8812 136.186 34.2052C135.991 29.9979 137.86 23.4135 142.547 22.3533C143.575 22.1155 144.647 22.1494 145.658 22.4516C146.668 22.7538 147.583 23.3139 148.312 24.0768C149.04 24.8397 149.557 25.7791 149.813 26.8026C150.068 27.8261 150.053 28.8985 149.768 29.9142Z" fill="#B55B52"/>
<path d="M142.357 20.7961C139.684 21.3541 136.727 23.5359 139.277 25.1262C141.827 26.7165 147.569 26.962 147.569 26.962C147.569 26.962 145.672 31.426 148.266 33.7306C149.131 33.3009 147.284 37.1957 147.284 37.1957C148.235 36.8684 149.03 36.2004 149.516 35.3209C151.068 34.9247 155.654 27.5089 152.597 25.4108C152.016 21.0863 145.945 20.0205 142.357 20.7961Z" fill="#263238"/>
<path d="M148.808 32.6035H148.747L144.729 30.7621C144.709 30.7564 144.69 30.7464 144.675 30.7329C144.659 30.7194 144.646 30.7027 144.637 30.6839C144.629 30.665 144.624 30.6445 144.624 30.6237C144.624 30.603 144.628 30.5824 144.636 30.5634C144.645 30.5444 144.657 30.5275 144.673 30.5137C144.689 30.5 144.707 30.4898 144.727 30.4837C144.747 30.4777 144.768 30.476 144.788 30.4788C144.809 30.4816 144.829 30.4887 144.846 30.4998L148.869 32.3412C148.904 32.3571 148.931 32.3858 148.944 32.4213C148.958 32.4567 148.957 32.4961 148.942 32.5309C148.928 32.5542 148.909 32.5734 148.885 32.5862C148.862 32.599 148.835 32.605 148.808 32.6035Z" fill="white"/>
<path d="M150.844 35.2093C150.072 36.0639 148.997 36.5826 147.848 36.6545C146.336 36.7326 145.945 35.2874 146.67 34.0263C147.323 32.9103 148.902 31.4818 150.264 32.0008C151.625 32.5197 151.776 34.1546 150.844 35.2093Z" fill="#B55B52"/>
<path d="M129.92 84.9719C129.92 84.9719 128.446 119.289 128.603 133.289C128.764 147.847 134.819 190.317 134.819 190.317H142.592C142.592 190.317 141.894 148.696 142.592 134.4C143.351 118.809 146.062 84.9719 146.062 84.9719H129.92Z" fill="#0071A3"/>
<path d="M142.954 186.885C142.993 186.885 143.099 190.479 143.099 190.479H134.138L133.625 186.573L142.954 186.885Z" fill="#263238"/>
<path opacity="0.2" d="M140.438 94.0565C140.17 111.087 140.94 121.432 142.843 129.769C143.311 121.644 144.076 110.903 144.751 101.98L140.438 94.0565Z" fill="black"/>
<path d="M138.63 84.9719C138.63 84.9719 142.982 120.048 145.516 133.189C148.306 147.58 158.908 190.317 158.908 190.317H167.317C167.317 190.317 160.682 148.746 159.242 134.517C157.686 119.055 154.46 84.9942 154.46 84.9942L138.63 84.9719Z" fill="#0071A3"/>
<path d="M167.116 187.075C167.155 187.075 167.741 190.479 167.741 190.479H158.5L157.485 186.729L167.116 187.075Z" fill="#263238"/>
<path d="M142.787 30.0312C142.715 30.3995 142.469 30.6618 142.229 30.6227C141.989 30.5837 141.856 30.2544 141.922 29.8862C141.989 29.5179 142.241 29.2556 142.48 29.2947C142.72 29.3337 142.849 29.663 142.787 30.0312Z" fill="#263238"/>
<path d="M138.284 28.9714C138.217 29.3397 137.966 29.602 137.726 29.5629C137.486 29.5238 137.352 29.1946 137.419 28.8263C137.486 28.4581 137.737 28.1958 137.977 28.2349C138.217 28.2739 138.351 28.6031 138.284 28.9714Z" fill="#263238"/>
<path d="M140.159 29.8919C139.395 30.8562 138.505 31.7138 137.514 32.4419C137.702 32.6863 137.941 32.886 138.215 33.0269C138.489 33.1678 138.791 33.2462 139.099 33.2566L140.159 29.8919Z" fill="#A02724"/>
<path d="M140.17 34.4004C140.142 34.3938 140.118 34.3768 140.103 34.3529C140.087 34.329 140.081 34.3001 140.086 34.2721C140.092 34.2434 140.108 34.2179 140.132 34.2012C140.156 34.1845 140.186 34.1779 140.215 34.1828C140.668 34.2659 141.134 34.2426 141.576 34.1148C142.019 33.987 142.426 33.7581 142.765 33.4463C142.784 33.4255 142.811 33.4133 142.839 33.4123C142.867 33.4112 142.895 33.4214 142.915 33.4407C142.936 33.4599 142.948 33.4866 142.949 33.5149C142.95 33.5431 142.94 33.5706 142.921 33.5913C142.559 33.9348 142.121 34.1874 141.643 34.3281C141.165 34.4688 140.66 34.4936 140.17 34.4004Z" fill="#263238"/>
<path d="M144.969 28.8372C144.936 28.8293 144.906 28.8135 144.881 28.7911C144.855 28.7688 144.836 28.7405 144.824 28.7089C144.736 28.4568 144.588 28.2296 144.394 28.0461C144.2 27.8626 143.965 27.7283 143.708 27.6543C143.652 27.6422 143.603 27.6085 143.571 27.5604C143.54 27.5123 143.529 27.4538 143.541 27.3976C143.553 27.3412 143.586 27.2916 143.634 27.2594C143.682 27.2271 143.74 27.2147 143.797 27.2246C144.13 27.3064 144.437 27.4696 144.692 27.6994C144.946 27.9293 145.139 28.2186 145.254 28.5415C145.272 28.5964 145.269 28.6563 145.246 28.7091C145.222 28.7619 145.179 28.8037 145.125 28.8261C145.076 28.8485 145.021 28.8525 144.969 28.8372Z" fill="#263238"/>
<path d="M137.129 27.2135C137.097 27.2067 137.068 27.1913 137.045 27.1689C137.006 27.1274 136.984 27.0725 136.984 27.0154C136.984 26.9584 137.006 26.9034 137.045 26.862C137.261 26.5902 137.537 26.3725 137.852 26.2262C138.167 26.08 138.512 26.0092 138.859 26.0194C138.886 26.0228 138.913 26.0318 138.938 26.0458C138.962 26.0597 138.984 26.0784 139.001 26.1008C139.018 26.1231 139.031 26.1486 139.038 26.1759C139.045 26.2031 139.047 26.2315 139.043 26.2593C139.04 26.288 139.031 26.3158 139.018 26.3411C139.004 26.3665 138.986 26.3889 138.963 26.4071C138.941 26.4252 138.915 26.4388 138.888 26.4469C138.86 26.4551 138.831 26.4577 138.803 26.4546C138.528 26.4487 138.256 26.5078 138.009 26.6271C137.762 26.7464 137.546 26.9225 137.38 27.141C137.35 27.1773 137.311 27.2037 137.266 27.2166C137.221 27.2296 137.173 27.2285 137.129 27.2135Z" fill="#263238"/>
<path d="M142.703 32.6429C142.593 32.6417 142.483 32.6324 142.374 32.615C142.113 32.5652 141.864 32.4642 141.641 32.3177C141.419 32.1711 141.228 31.982 141.08 31.7612C140.889 31.4773 140.757 31.1587 140.69 30.8236C140.623 30.4885 140.623 30.1435 140.689 29.8082C140.765 29.1978 141.076 28.6412 141.557 28.2574C142.038 27.8737 142.649 27.6933 143.261 27.7548C143.789 27.857 144.254 28.1639 144.556 28.6085C144.938 29.1828 145.078 29.8845 144.947 30.5615C144.87 31.1141 144.605 31.6232 144.196 32.0026C143.788 32.3819 143.26 32.6082 142.703 32.6429ZM142.927 28.017C142.439 28.0516 141.978 28.2538 141.622 28.5894C141.266 28.925 141.037 29.3733 140.974 29.8584C140.854 30.4609 140.976 31.0863 141.314 31.5994C141.443 31.7888 141.607 31.951 141.799 32.0764C141.99 32.2019 142.205 32.2882 142.43 32.3304C142.966 32.379 143.5 32.2159 143.917 31.8759C144.334 31.5359 144.601 31.0461 144.662 30.5113C144.78 29.9081 144.656 29.2826 144.316 28.7703C144.188 28.5805 144.023 28.4181 143.832 28.2925C143.64 28.167 143.425 28.081 143.2 28.0394C143.11 28.0243 143.018 28.0168 142.927 28.017Z" fill="white"/>
<path d="M140.829 29.9753C140.806 29.9751 140.783 29.9694 140.763 29.9587C140.742 29.9481 140.725 29.9327 140.712 29.9139C140.621 29.7309 140.467 29.5874 140.278 29.5103C140.088 29.4332 139.878 29.4279 139.685 29.4954C139.649 29.5088 139.61 29.5081 139.575 29.4936C139.54 29.4792 139.511 29.4519 139.495 29.4173C139.48 29.3825 139.479 29.3431 139.493 29.3076C139.506 29.2722 139.533 29.2434 139.568 29.2276C139.823 29.1369 140.102 29.1398 140.356 29.2359C140.609 29.332 140.82 29.5149 140.952 29.7521C140.962 29.7682 140.969 29.7862 140.972 29.805C140.976 29.8239 140.975 29.8432 140.971 29.8618C140.967 29.8805 140.959 29.8982 140.948 29.9138C140.937 29.9294 140.923 29.9428 140.907 29.953C140.884 29.9687 140.857 29.9765 140.829 29.9753Z" fill="white"/>
<path d="M137.531 31.4653C137.419 31.4644 137.307 31.4551 137.196 31.4374C136.935 31.3877 136.686 31.2866 136.463 31.1401C136.241 30.9936 136.05 30.8044 135.901 30.5837C135.52 30.0094 135.379 29.3077 135.511 28.6307C135.586 28.0206 135.898 27.4645 136.379 27.0817C136.86 26.6988 137.472 26.5197 138.083 26.5828C138.345 26.6304 138.594 26.7299 138.817 26.8756C139.039 27.0213 139.23 27.2102 139.378 27.431C139.76 28.0072 139.9 28.7107 139.768 29.3895C139.692 29.9406 139.428 30.4483 139.02 30.8267C138.612 31.205 138.086 31.4306 137.531 31.4653ZM137.748 26.8395C137.26 26.874 136.799 27.0762 136.444 27.4118C136.088 27.7474 135.859 28.1958 135.795 28.6809C135.736 28.9796 135.736 29.2871 135.795 29.5858C135.854 29.8846 135.972 30.1687 136.141 30.4218C136.27 30.6117 136.434 30.7741 136.626 30.8996C136.817 31.0251 137.032 31.1112 137.257 31.1528C137.793 31.2015 138.327 31.0383 138.744 30.6983C139.161 30.3583 139.429 29.8685 139.489 29.3337C139.609 28.7305 139.485 28.1044 139.143 27.5928C138.883 27.2111 138.482 26.9482 138.027 26.8618C137.935 26.8464 137.842 26.8389 137.748 26.8395Z" fill="white"/>
<path d="M160.146 196.795C159.837 196.82 159.528 196.739 159.27 196.566C159.193 196.497 159.133 196.41 159.097 196.313C159.06 196.216 159.046 196.112 159.058 196.008C159.061 195.944 159.08 195.881 159.115 195.826C159.149 195.772 159.197 195.727 159.253 195.696C159.761 195.439 161.223 196.349 161.39 196.449C161.409 196.46 161.423 196.477 161.431 196.498C161.439 196.518 161.441 196.54 161.435 196.561C161.432 196.582 161.422 196.603 161.407 196.619C161.392 196.635 161.373 196.646 161.351 196.65C160.956 196.744 160.552 196.792 160.146 196.795ZM159.488 195.847C159.44 195.846 159.392 195.856 159.348 195.874C159.325 195.887 159.306 195.906 159.294 195.928C159.281 195.951 159.275 195.977 159.276 196.003C159.264 196.075 159.271 196.149 159.295 196.219C159.32 196.288 159.361 196.35 159.415 196.399C159.661 196.611 160.258 196.639 161.044 196.483C160.579 196.173 160.058 195.957 159.51 195.847H159.488Z" fill="#0071A3"/>
<path d="M161.352 196.639C161.335 196.644 161.318 196.644 161.301 196.639C160.833 196.382 159.934 195.378 160.046 194.865C160.064 194.785 160.109 194.713 160.173 194.662C160.236 194.61 160.316 194.582 160.397 194.58C160.48 194.569 160.564 194.576 160.644 194.6C160.724 194.624 160.798 194.665 160.861 194.719C161.379 195.155 161.458 196.477 161.463 196.539C161.46 196.568 161.447 196.595 161.427 196.616C161.407 196.637 161.38 196.651 161.352 196.656V196.639ZM160.47 194.798H160.42C160.28 194.798 160.264 194.876 160.258 194.904C160.197 195.205 160.76 195.969 161.223 196.326C161.204 195.806 161.027 195.304 160.715 194.887C160.647 194.829 160.56 194.797 160.47 194.798Z" fill="#0071A3"/>
<path d="M134.713 196.801C134.319 196.838 133.924 196.737 133.597 196.516C133.523 196.451 133.467 196.368 133.434 196.275C133.401 196.183 133.391 196.083 133.407 195.986C133.411 195.927 133.429 195.87 133.462 195.82C133.494 195.77 133.539 195.729 133.591 195.702C134.149 195.384 135.979 196.321 136.186 196.433C136.206 196.442 136.223 196.459 136.234 196.479C136.245 196.5 136.248 196.523 136.244 196.546C136.241 196.568 136.23 196.589 136.213 196.605C136.196 196.621 136.175 196.631 136.152 196.633C135.679 196.734 135.197 196.79 134.713 196.801ZM133.92 195.847C133.85 195.846 133.779 195.859 133.714 195.886C133.693 195.898 133.676 195.915 133.664 195.935C133.653 195.956 133.647 195.979 133.647 196.003C133.635 196.067 133.641 196.133 133.662 196.195C133.684 196.256 133.721 196.311 133.77 196.354C134.043 196.606 134.796 196.65 135.817 196.477C135.225 196.161 134.584 195.948 133.92 195.847Z" fill="#0071A3"/>
<path d="M136.152 196.639H136.108C135.55 196.388 134.489 195.4 134.584 194.876C134.584 194.759 134.696 194.602 134.997 194.574C135.104 194.561 135.213 194.571 135.315 194.603C135.418 194.634 135.513 194.688 135.594 194.759C136.152 195.238 136.258 196.477 136.264 196.527C136.264 196.546 136.261 196.565 136.253 196.583C136.245 196.6 136.234 196.616 136.219 196.628C136.198 196.636 136.175 196.64 136.152 196.639ZM135.064 194.798H134.997C134.802 194.798 134.785 194.893 134.78 194.92C134.724 195.227 135.449 196.009 136.007 196.349C135.972 195.83 135.777 195.335 135.449 194.932C135.342 194.84 135.205 194.792 135.064 194.798Z" fill="#0071A3"/>
<path d="M148.986 43.719L154.287 44.3551C155.166 44.4595 155.974 44.8902 156.551 45.5619C157.128 46.2336 157.431 47.0974 157.401 47.9821C157.133 56.2461 156.039 67.6014 156.916 84.9719C157.356 93.7325 163.478 141.302 163.478 141.302L151.419 143.417C145.661 125.137 141.626 106.358 139.366 87.3267C138.49 79.0558 138.46 70.7169 139.277 62.4399L148.986 43.719Z" fill="#0071A3"/>
<path opacity="0.8" d="M148.986 43.719L154.287 44.3551C155.166 44.4595 155.974 44.8902 156.551 45.5619C157.128 46.2336 157.431 47.0974 157.401 47.9821C157.133 56.2461 156.039 67.6014 156.916 84.9719C157.356 93.7325 163.478 141.302 163.478 141.302L151.419 143.417C145.661 125.137 141.626 106.358 139.366 87.3267C138.49 79.0558 138.46 70.7169 139.277 62.4399L148.986 43.719Z" fill="white"/>
<path opacity="0.2" d="M153.316 54.2654C153.316 55.5041 154.265 61.8095 156.614 66.1619C156.681 63.1934 156.787 60.4815 156.91 57.9928L153.316 54.2654Z" fill="#0071A3"/>
<path opacity="0.2" d="M130.5 53.1604C129.819 54.4605 127.855 59.9736 126.856 65.9944C127.314 65.6763 127.749 65.3471 128.168 65.0123C129.71 63.7315 131.126 62.3058 132.397 60.7548L132.643 60.4535L130.5 53.1604Z" fill="#0071A3"/>
<path d="M137.788 44.2603L134.657 44.6397C133.157 44.8243 131.771 45.5373 130.749 46.6508C129.726 47.7643 129.134 49.2056 129.077 50.7163C128.72 59.9903 127.995 78.5159 127.599 84.9719C127.041 93.727 127.437 141.302 127.437 141.302L134.953 142.619C134.953 142.619 136.861 116.426 139.389 87.3267C140.037 78.6899 140.192 70.023 139.852 61.3685L137.788 44.2603Z" fill="#0071A3"/>
<path opacity="0.8" d="M137.788 44.2603L134.657 44.6397C133.157 44.8243 131.771 45.5373 130.749 46.6508C129.726 47.7643 129.134 49.2056 129.077 50.7163C128.72 59.9903 127.995 78.5159 127.599 84.9719C127.041 93.727 127.437 141.302 127.437 141.302L134.953 142.619C134.953 142.619 136.861 116.426 139.389 87.3267C140.037 78.6899 140.192 70.023 139.852 61.3685L137.788 44.2603Z" fill="white"/>
<path d="M141.024 46.8326C141.724 47.9552 142.286 49.158 142.698 50.4149C142.698 50.4149 150.024 47.8983 149.762 43.864C149.762 43.864 148.646 43.2055 147.977 42.6699C147.971 42.6699 147.642 45.2144 141.024 46.8326Z" fill="#F5F5F5"/>
<path d="M141.024 46.8328C140.189 47.7976 139.489 48.8713 138.943 50.0245C138.042 49.3471 137.378 48.4022 137.046 47.3249C136.714 46.2475 136.732 45.0929 137.096 44.026C137.75 43.7622 138.423 43.5495 139.11 43.3899C139.11 43.3899 138.58 45.9679 141.024 46.8328Z" fill="#F5F5F5"/>
<path opacity="0.2" d="M148.635 87.4105L157.033 94.6254L151.297 91.8187L148.635 87.4105Z" fill="#0071A3"/>
<path d="M157.066 46.4702C157.423 46.9668 157.691 47.3575 157.993 47.7983L158.846 49.0872C159.404 49.9503 159.946 50.8226 160.47 51.7043C161.525 53.4731 162.518 55.2811 163.433 57.1727C164.378 59.1077 165.182 61.1087 165.838 63.16C166.187 64.2565 166.463 65.375 166.664 66.508C166.876 67.7349 166.972 68.9793 166.948 70.2243C166.844 72.5736 166.391 74.8942 165.604 77.11C164.89 79.1491 164.009 81.1256 162.97 83.0192C161.98 84.8504 160.891 86.6257 159.706 88.337C159.125 89.1889 158.526 90.0259 157.909 90.848C157.602 91.2609 157.284 91.6738 156.96 92.0811C156.637 92.4885 156.33 92.8679 155.928 93.3366L150.03 88.2198C150.253 87.9519 150.588 87.5725 150.833 87.2265L151.659 86.1552C152.217 85.4298 152.731 84.6932 153.238 83.9232C154.24 82.4353 155.159 80.8928 155.989 79.303C156.786 77.7829 157.452 76.1981 157.981 74.5655C158.47 73.1263 158.735 71.6209 158.768 70.1015C158.702 68.6213 158.398 67.1613 157.87 65.777C157.284 64.1582 156.573 62.5873 155.744 61.0787C154.896 59.5163 153.953 57.965 152.954 56.4529C152.446 55.6996 151.921 54.9518 151.386 54.2209L150.571 53.1327C150.303 52.7868 150.013 52.3962 149.773 52.1228L157.066 46.4702Z" fill="#0071A3"/>
<path opacity="0.8" d="M157.066 46.4702C157.423 46.9668 157.691 47.3575 157.993 47.7983L158.846 49.0872C159.404 49.9503 159.946 50.8226 160.47 51.7043C161.525 53.4731 162.518 55.2811 163.433 57.1727C164.378 59.1077 165.182 61.1087 165.838 63.16C166.187 64.2565 166.463 65.375 166.664 66.508C166.876 67.7349 166.972 68.9793 166.948 70.2243C166.844 72.5736 166.391 74.8942 165.604 77.11C164.89 79.1491 164.009 81.1256 162.97 83.0192C161.98 84.8504 160.891 86.6257 159.706 88.337C159.125 89.1889 158.526 90.0259 157.909 90.848C157.602 91.2609 157.284 91.6738 156.96 92.0811C156.637 92.4885 156.33 92.8679 155.928 93.3366L150.03 88.2198C150.253 87.9519 150.588 87.5725 150.833 87.2265L151.659 86.1552C152.217 85.4298 152.731 84.6932 153.238 83.9232C154.24 82.4353 155.159 80.8928 155.989 79.303C156.786 77.7829 157.452 76.1981 157.981 74.5655C158.47 73.1263 158.735 71.6209 158.768 70.1015C158.702 68.6213 158.398 67.1613 157.87 65.777C157.284 64.1582 156.573 62.5873 155.744 61.0787C154.896 59.5163 153.953 57.965 152.954 56.4529C152.446 55.6996 151.921 54.9518 151.386 54.2209L150.571 53.1327C150.303 52.7868 150.013 52.3962 149.773 52.1228L157.066 46.4702Z" fill="white"/>
<path d="M149.545 56.1458C149.364 56.5671 149.043 56.9124 148.635 57.1222C148.228 57.332 147.76 57.3932 147.313 57.2953C147.108 57.2507 146.917 57.1611 146.752 57.033C146.587 56.9048 146.453 56.7414 146.359 56.5547C146.266 56.368 146.215 56.1627 146.211 55.9539C146.207 55.7451 146.25 55.538 146.336 55.3478C146.516 54.9269 146.838 54.5821 147.246 54.3733C147.653 54.1644 148.121 54.1045 148.568 54.2039C148.772 54.2478 148.963 54.3367 149.128 54.4643C149.293 54.5919 149.427 54.7548 149.521 54.9411C149.615 55.1274 149.666 55.3323 149.67 55.5408C149.674 55.7493 149.631 55.956 149.545 56.1458Z" fill="#263238"/>
<path opacity="0.2" d="M149.545 56.1458C149.364 56.5671 149.043 56.9124 148.635 57.1222C148.228 57.332 147.76 57.3932 147.313 57.2953C147.108 57.2507 146.917 57.1611 146.752 57.033C146.587 56.9048 146.453 56.7414 146.359 56.5547C146.266 56.368 146.215 56.1627 146.211 55.9539C146.207 55.7451 146.25 55.538 146.336 55.3478C146.516 54.9269 146.838 54.5821 147.246 54.3733C147.653 54.1644 148.121 54.1045 148.568 54.2039C148.772 54.2478 148.963 54.3367 149.128 54.4643C149.293 54.5919 149.427 54.7548 149.521 54.9411C149.615 55.1274 149.666 55.3323 149.67 55.5408C149.674 55.7493 149.631 55.956 149.545 56.1458Z" fill="white"/>
<path d="M147.709 55.2975C147.663 55.2983 147.618 55.2847 147.581 55.2584C147.534 55.2249 147.503 55.1745 147.494 55.1181C147.484 55.0617 147.497 55.0039 147.53 54.9571C151.682 49.1818 150.521 44.0482 150.51 43.998C150.498 43.969 150.493 43.9378 150.494 43.9065C150.496 43.8752 150.504 43.8446 150.518 43.8167C150.533 43.7889 150.553 43.7644 150.577 43.7451C150.602 43.7258 150.63 43.712 150.661 43.7046C150.691 43.6973 150.723 43.6967 150.754 43.7027C150.785 43.7088 150.814 43.7214 150.839 43.7397C150.864 43.758 150.886 43.7816 150.901 43.8089C150.916 43.8361 150.926 43.8664 150.929 43.8976C150.929 43.9478 152.156 49.2655 147.882 55.2082C147.863 55.2365 147.837 55.2596 147.807 55.2752C147.777 55.2908 147.743 55.2985 147.709 55.2975Z" fill="#263238"/>
<path d="M133.234 52.3679C133.179 52.3668 133.127 52.3458 133.087 52.3088C133.047 52.2718 133.022 52.2213 133.016 52.167C132.564 46.4978 135.566 44.4053 135.695 44.3216C135.743 44.2906 135.8 44.2792 135.856 44.2896C135.912 44.2999 135.962 44.3313 135.996 44.3774C136.028 44.4255 136.039 44.4842 136.028 44.5407C136.016 44.5972 135.983 44.6468 135.935 44.6787C135.907 44.6787 133.016 46.7321 133.452 52.1336C133.455 52.1904 133.435 52.2462 133.398 52.2889C133.36 52.3317 133.307 52.358 133.251 52.3623L133.234 52.3679Z" fill="#263238"/>
<path d="M148.936 55.9951C148.755 56.4157 148.433 56.7604 148.026 56.9701C147.619 57.1797 147.152 57.2414 146.704 57.1446C146.499 57.101 146.307 57.0119 146.142 56.884C145.976 56.756 145.842 56.5925 145.748 56.4055C145.654 56.2185 145.604 56.0128 145.6 55.8037C145.597 55.5945 145.64 55.3872 145.728 55.1972C145.913 54.7814 146.236 54.4427 146.644 54.2392C147.051 54.0356 147.516 53.9798 147.96 54.0812C148.159 54.1268 148.347 54.2158 148.508 54.3417C148.67 54.4676 148.802 54.6275 148.895 54.81C148.988 54.9925 149.04 55.1932 149.047 55.398C149.054 55.6028 149.016 55.8066 148.936 55.9951Z" fill="#263238"/>
<path opacity="0.4" d="M148.936 55.9951C148.755 56.4157 148.433 56.7604 148.026 56.9701C147.619 57.1797 147.152 57.2414 146.704 57.1446C146.499 57.101 146.307 57.0119 146.142 56.884C145.976 56.756 145.842 56.5925 145.748 56.4055C145.654 56.2185 145.604 56.0128 145.6 55.8037C145.597 55.5945 145.64 55.3872 145.728 55.1972C145.913 54.7814 146.236 54.4427 146.644 54.2392C147.051 54.0356 147.516 53.9798 147.96 54.0812C148.159 54.1268 148.347 54.2158 148.508 54.3417C148.67 54.4676 148.802 54.6275 148.895 54.81C148.988 54.9925 149.04 55.1932 149.047 55.398C149.054 55.6028 149.016 55.8066 148.936 55.9951Z" fill="white"/>
<path opacity="0.4" d="M147.999 55.6938C147.903 55.9155 147.733 56.097 147.519 56.207C147.304 56.317 147.057 56.3486 146.821 56.2964C146.715 56.2729 146.614 56.2258 146.528 56.1586C146.441 56.0914 146.371 56.0058 146.322 55.908C146.273 55.8102 146.246 55.7027 146.244 55.5932C146.241 55.4838 146.263 55.3752 146.308 55.2753C146.405 55.0543 146.574 54.8735 146.789 54.7636C147.004 54.6538 147.25 54.6216 147.485 54.6727C147.592 54.6962 147.693 54.7433 147.779 54.8105C147.866 54.8777 147.936 54.9633 147.985 55.0611C148.034 55.1589 148.061 55.2665 148.063 55.3759C148.066 55.4854 148.044 55.594 147.999 55.6938Z" fill="white"/>
<path d="M134.93 65.5592C134.874 65.5578 134.82 65.5342 134.78 65.4935C134.741 65.4529 134.718 65.3984 134.718 65.3416C134.718 65.3133 134.723 65.2851 134.733 65.2587C134.743 65.2324 134.759 65.2083 134.779 65.188C134.798 65.1678 134.822 65.1516 134.848 65.1406C134.874 65.1296 134.902 65.124 134.93 65.124C135.34 65.112 135.731 64.9503 136.029 64.6696C136.327 64.3889 136.512 64.0085 136.549 63.6006L136.962 56.3466C136.996 55.8377 136.925 55.3272 136.753 54.847C136.581 54.3669 136.312 53.9275 135.961 53.5565C135.611 53.1855 135.188 52.8909 134.719 52.6912C134.25 52.4915 133.744 52.391 133.234 52.396C132.161 52.4089 131.132 52.8255 130.353 53.5628C129.573 54.3001 129.1 55.3039 129.027 56.3745L128.608 63.6285C128.594 63.8223 128.619 64.0171 128.684 64.2003C128.749 64.3836 128.852 64.5512 128.985 64.6925C129.118 64.8339 129.28 64.9457 129.459 65.021C129.638 65.0963 129.831 65.1332 130.026 65.1296C130.083 65.1296 130.139 65.1525 130.18 65.1933C130.22 65.2341 130.243 65.2895 130.243 65.3472C130.242 65.4044 130.218 65.459 130.178 65.4995C130.137 65.54 130.083 65.5634 130.026 65.5648C129.773 65.5669 129.523 65.5168 129.29 65.4176C129.058 65.3185 128.848 65.1724 128.675 64.9886C128.501 64.8047 128.368 64.587 128.282 64.3492C128.197 64.1113 128.162 63.8584 128.179 63.6062L128.597 56.3522C128.677 55.1721 129.199 54.0653 130.058 53.2525C130.917 52.4397 132.051 51.9805 133.234 51.9663C133.804 51.9611 134.368 52.0738 134.892 52.2971C135.415 52.5205 135.887 52.8498 136.278 53.2643C136.668 53.6788 136.969 54.1696 137.16 54.7058C137.352 55.242 137.431 55.8121 137.391 56.3801L136.978 63.6341C136.941 64.1533 136.709 64.6394 136.33 64.996C135.95 65.3526 135.451 65.5536 134.93 65.5592Z" fill="#263238"/>
<path d="M130.383 65.3417C130.383 65.6876 130.187 65.9722 129.992 65.9722C129.797 65.9722 129.646 65.6876 129.668 65.3417C129.691 64.9957 129.864 64.7055 130.065 64.7055C130.266 64.7055 130.405 64.9901 130.383 65.3417Z" fill="#263238"/>
<path d="M135.293 65.3417C135.293 65.6876 135.098 65.9722 134.897 65.9722C134.696 65.9722 134.551 65.6876 134.574 65.3417C134.596 64.9957 134.769 64.7055 134.97 64.7055C135.171 64.7055 135.31 64.9901 135.293 65.3417Z" fill="#263238"/>
<path d="M90.3625 21.2597L89.9663 20.9751C91.1324 19.3783 92.7719 18.1895 94.652 17.5775C96.5322 16.9654 98.5574 16.9613 100.44 17.5658L100.289 18.0345C98.5055 17.4627 96.587 17.4665 94.8055 18.0454C93.024 18.6242 91.4696 19.7487 90.3625 21.2597Z" fill="#0071A3"/>
<path d="M88.6776 26.2818H88.1865C88.2117 25.3905 88.3639 24.5074 88.6385 23.6592L89.1072 23.8098C88.847 24.6091 88.7023 25.4415 88.6776 26.2818Z" fill="#0071A3"/>
<path d="M114.909 26.6727C114.481 25.7257 113.864 24.8756 113.097 24.174C112.33 23.4724 111.428 22.9339 110.447 22.5911C109.465 22.2483 108.424 22.1084 107.387 22.1798C106.35 22.2512 105.338 22.5325 104.413 23.0066C103.948 22.0985 103.306 21.2922 102.526 20.635C101.745 19.9778 100.841 19.4827 99.8671 19.1788C98.893 18.8748 97.8681 18.7681 96.8523 18.8649C95.8364 18.9617 94.8501 19.2599 93.9508 19.7423C90.229 21.7399 88.9288 26.4718 90.8651 30.2383L95.8871 40.0423C96.1309 40.5195 96.4665 40.9439 96.8746 41.2912C97.2827 41.6385 97.7553 41.9018 98.2654 42.0662C98.7755 42.2305 99.3129 42.2925 99.847 42.2488C100.381 42.205 100.901 42.0563 101.378 41.8112L111.221 36.7892C113.016 35.898 114.4 34.3509 115.087 32.4679C115.773 30.585 115.71 28.5102 114.909 26.6727Z" fill="#0071A3"/>
</svg>
