<svg width="52" height="52" viewBox="0 0 52 52" fill="none" xmlns="http://www.w3.org/2000/svg">
<path d="M26 2C12.6875 2 2 12.7812 2 26C2 39.3125 12.6875 50 26 50C39.2188 50 50 39.3125 50 26C50 12.7812 39.2188 2 26 2ZM26 45.5C15.2188 45.5 6.5 36.7812 6.5 26C6.5 15.3125 15.2188 6.5 26 6.5C36.6875 6.5 45.5 15.3125 45.5 26C45.5 36.7812 36.6875 45.5 26 45.5ZM29.75 33.5H28.25V25.25C28.25 24.0312 27.2188 23 26 23H23C21.6875 23 20.75 24.0312 20.75 25.25C20.75 26.5625 21.6875 27.5 23 27.5H23.75V33.5H22.25C20.9375 33.5 20 34.5312 20 35.75C20 37.0625 20.9375 38 22.25 38H29.75C30.9688 38 32 37.0625 32 35.75C32 34.5312 30.9688 33.5 29.75 33.5ZM26 20C27.5938 20 29 18.6875 29 17C29 15.4062 27.5938 14 26 14C24.3125 14 23 15.4062 23 17C23 18.6875 24.3125 20 26 20Z" fill="#A66A02"/>
</svg>
