<svg width="45" height="36" viewBox="0 0 45 36" fill="none" xmlns="http://www.w3.org/2000/svg">
<g clip-path="url(#clip0_1162_3413)">
<path d="M11.9703 15.39C11.0576 15.318 10.3406 14.9522 9.81909 14.2917C9.29755 13.6316 8.93907 12.758 8.74334 11.6709C8.66862 11.2848 8.61961 10.8896 8.59662 10.4853C8.57333 10.081 8.55699 9.6791 8.54761 9.27934C8.53824 8.87989 8.5337 8.48436 8.5337 8.09368C8.5337 7.70299 8.52886 7.32349 8.51978 6.95518C8.24026 6.99117 7.99824 7.17744 7.79344 7.5143C7.58833 7.85116 7.41378 8.26453 7.26948 8.75379C7.12488 9.24336 7.00629 9.77345 6.91342 10.3438C6.82024 10.9144 6.73887 11.4532 6.66898 11.9606C6.5991 12.4683 6.54102 12.9083 6.49443 13.2812C6.44784 13.654 6.40126 13.8808 6.35467 13.9615C6.2987 14.0873 6.20553 14.1862 6.07514 14.2579C5.94476 14.3295 5.80288 14.3725 5.6492 14.3858C5.49552 14.3994 5.34184 14.3858 5.18816 14.3453C5.03449 14.305 4.91106 14.2355 4.81788 14.1363C4.59432 13.9029 4.42189 13.5905 4.30088 13.1998C4.17987 12.8091 4.10999 12.416 4.09154 12.0208C4.05403 11.0689 3.98203 10.0964 3.87494 9.10366C3.76785 8.11122 3.60721 7.15657 3.39303 6.24034C3.32768 6.28539 3.26022 6.33256 3.19034 6.38185C3.12046 6.43145 3.05058 6.50311 2.981 6.59746C2.91112 6.6918 2.8364 6.81548 2.75744 6.96788C2.67818 7.12059 2.5968 7.31835 2.51301 7.56087C2.44766 7.74956 2.38716 8.01022 2.3315 8.34254C2.27553 8.67487 2.22683 9.04318 2.18478 9.44747C2.14303 9.85177 2.10552 10.2739 2.07284 10.7142C2.04017 11.1545 2.01204 11.5745 1.98905 11.9739C1.96575 12.3737 1.9473 12.7329 1.93308 13.0516C1.91917 13.3707 1.90737 13.6153 1.89829 13.7861C1.88891 13.921 1.81661 14.0311 1.68169 14.1161C1.54646 14.2016 1.39037 14.2488 1.2137 14.2576C1.03672 14.2666 0.859751 14.2352 0.682779 14.1632C0.505807 14.0916 0.375422 13.9703 0.291625 13.7995C0.16124 13.5482 0.0774426 13.2672 0.040233 12.9573C0.00302339 12.6474 -0.00877477 12.3307 0.00544352 12.0075C0.0193593 11.6842 0.0520311 11.3655 0.103156 11.0507C0.154282 10.7363 0.202987 10.4399 0.249877 10.1614C0.287087 9.9189 0.34275 9.60683 0.417472 9.22491C0.491891 8.8433 0.587184 8.44324 0.703955 8.02564C0.820122 7.60804 0.962304 7.19709 1.1299 6.7928C1.29749 6.38881 1.49776 6.04046 1.7307 5.74865C1.96333 5.45685 2.2356 5.2479 2.5478 5.1221C2.85969 4.99631 3.21122 5.00084 3.60237 5.13541C3.85376 5.22522 4.06794 5.42298 4.24492 5.72839C4.42159 6.0338 4.56619 6.40211 4.67812 6.83332C4.79005 7.26453 4.87597 7.73383 4.93647 8.24154C4.99697 8.74895 5.04114 9.24517 5.06927 9.73021C5.09711 10.2152 5.11344 10.6646 5.11828 11.0777C5.12282 11.491 5.12978 11.8188 5.13916 12.0613C5.21358 11.8726 5.29979 11.6147 5.39751 11.2866C5.49522 10.9588 5.60685 10.595 5.73269 10.1953C5.85854 9.79552 5.9983 9.38246 6.15168 8.95579C6.30536 8.52912 6.47507 8.12029 6.66142 7.7296C6.84747 7.33891 7.04774 6.98633 7.26222 6.67184C7.4764 6.35736 7.7045 6.11938 7.94682 5.9579C8.18883 5.79613 8.44718 5.72658 8.72217 5.74895C8.99685 5.77133 9.28787 5.92192 9.59523 6.20042C9.80003 6.38911 9.97005 6.69211 10.105 7.11001C10.2399 7.52761 10.3564 8.00145 10.4544 8.53154C10.5521 9.06162 10.6383 9.61862 10.7127 10.2022C10.7871 10.7861 10.864 11.3341 10.9432 11.846C11.0222 12.358 11.1084 12.8049 11.2016 13.1865C11.2945 13.5684 11.4158 13.8267 11.5649 13.9612C11.7885 14.1768 12.0024 14.3135 12.2075 14.3722C12.4123 14.4305 12.5938 14.4641 12.7523 14.4732C12.9105 14.4819 13.0479 14.4868 13.1643 14.4868C13.2808 14.4868 13.3622 14.5361 13.4088 14.635C13.446 14.7157 13.4345 14.8034 13.374 14.8977C13.3132 14.9921 13.2179 15.0773 13.0875 15.1539C12.9571 15.2301 12.7943 15.293 12.5986 15.3425C12.4029 15.3918 12.1935 15.4076 11.97 15.3897L11.9703 15.39Z" fill="#0071A3"/>
<path d="M15.8673 8.61267C15.8395 8.7294 15.7602 8.82616 15.6298 8.90236C15.4995 8.97887 15.3503 9.05719 15.1827 9.13823C15.0151 9.21896 14.8427 9.30908 14.6657 9.40765C14.4887 9.50654 14.3396 9.63656 14.2186 9.79834C14.0322 10.059 13.9019 10.3689 13.8274 10.7282C13.7527 11.0874 13.7179 11.4312 13.7228 11.759C13.7273 12.0871 13.7694 12.3699 13.8483 12.6078C13.9273 12.8458 14.0277 12.965 14.1487 12.965C14.2976 12.965 14.4537 12.8975 14.6167 12.763C14.7795 12.6284 14.9262 12.4733 15.0566 12.2982C15.187 12.1231 15.294 11.9435 15.3778 11.7593C15.4616 11.5755 15.5034 11.434 15.5034 11.3348C15.5034 11.2356 15.4985 11.0989 15.4895 10.9238C15.4801 10.7487 15.4825 10.5758 15.4964 10.4049C15.5103 10.2344 15.5382 10.0862 15.5802 9.96042C15.622 9.83463 15.6943 9.7672 15.7968 9.75843C15.8991 9.74966 16.0225 9.72698 16.1671 9.69099C16.3114 9.65501 16.4484 9.65047 16.5791 9.67739C16.7095 9.7043 16.8142 9.79199 16.8934 9.94016C16.9724 10.0883 17.003 10.3423 16.9842 10.7013C16.9564 11.4288 16.9933 11.9792 17.0961 12.3517C17.1984 12.7246 17.3987 12.9426 17.6969 13.0052C17.9017 13.0412 18.0857 12.994 18.2487 12.8637C18.4115 12.7336 18.5582 12.5876 18.6886 12.4258C18.819 12.264 18.9306 12.1183 19.0238 11.9879C19.1166 11.8579 19.1914 11.8059 19.2473 11.8331C19.3124 11.86 19.3357 11.9725 19.3172 12.17C19.2985 12.3677 19.2286 12.59 19.1076 12.837C18.9866 13.0841 18.8072 13.3312 18.5697 13.5782C18.3322 13.8253 18.027 14.0161 17.6549 14.1509C17.4592 14.2229 17.2776 14.2589 17.1101 14.2589C16.9425 14.2589 16.7909 14.2365 16.656 14.1914C16.5207 14.1467 16.4022 14.0835 16.2999 14.0028C16.1974 13.922 16.1042 13.8322 16.0204 13.7333C15.834 13.509 15.6852 13.2305 15.5733 12.8978C15.4801 13.1134 15.3497 13.3021 15.1821 13.4636C15.0423 13.6075 14.8608 13.74 14.6373 13.8612C14.4137 13.9825 14.139 14.0523 13.8132 14.0702C13.4871 14.0793 13.1798 13.9804 12.8912 13.7738C12.6022 13.5673 12.372 13.2888 12.1996 12.9383C12.0272 12.5882 11.9343 12.1818 11.9201 11.7188C11.9062 11.2565 12.0108 10.769 12.2344 10.2571C12.3832 9.92474 12.579 9.64201 12.8213 9.40826C13.0633 9.17482 13.3216 8.98371 13.5966 8.83554C13.8713 8.68736 14.146 8.57941 14.4207 8.51198C14.6954 8.44455 14.9422 8.40645 15.1609 8.39737C15.3797 8.3886 15.5566 8.40433 15.6919 8.44455C15.8268 8.48507 15.8852 8.54131 15.8664 8.61298L15.8673 8.61267Z" fill="#0071A3"/>
<path d="M18.3957 9.04393C18.2932 8.99011 18.2 8.95866 18.1162 8.94959C18.0324 8.94082 17.9556 8.93598 17.8857 8.93598C17.8158 8.93598 17.7553 8.92933 17.7042 8.91572C17.6531 8.90241 17.6089 8.85978 17.5714 8.78781C17.5433 8.72491 17.5877 8.63964 17.7042 8.53169C17.8207 8.42404 17.9765 8.33423 18.1722 8.26226C18.3676 8.19059 18.5863 8.16126 18.8287 8.17487C19.0707 8.18817 19.3036 8.2804 19.5272 8.45095C19.7226 8.61273 19.8832 8.76755 20.0091 8.91572C20.1346 9.06389 20.2347 9.19664 20.3095 9.31336C20.3933 9.44823 20.4538 9.57856 20.491 9.70405C20.7514 9.46153 21.0219 9.25954 21.3011 9.09776C21.5431 8.95412 21.8133 8.8374 22.1113 8.74759C22.4092 8.65778 22.7072 8.65325 23.0052 8.73398C23.0796 8.7609 23.1144 8.81714 23.1099 8.90241C23.105 8.98799 23.0681 9.07992 22.9982 9.1785C22.9284 9.27738 22.8328 9.37172 22.7118 9.46153C22.5908 9.55164 22.4465 9.61424 22.2786 9.65022C21.9524 9.72219 21.6941 9.85706 21.5032 10.0545C21.3123 10.2523 21.1656 10.4836 21.063 10.7485C20.9605 11.0137 20.8954 11.2967 20.8676 11.5973C20.8395 11.8982 20.8259 12.1882 20.8259 12.4664C20.8349 13.0503 20.7511 13.4836 20.5745 13.7666C20.3975 14.0497 20.16 14.2 19.862 14.2181C19.5175 14.2363 19.2612 14.0832 19.0937 13.76C18.9261 13.4364 18.8423 12.8888 18.8423 12.1162C18.8513 11.6312 18.8562 11.209 18.8562 10.8495C18.8562 10.49 18.8423 10.1873 18.8144 9.93991C18.7863 9.69286 18.7397 9.49752 18.6747 9.35388C18.6093 9.21025 18.5162 9.10683 18.3951 9.04393H18.3957Z" fill="#0071A3"/>
<path d="M23.0473 11.8058C23.1217 11.7073 23.1916 11.615 23.2569 11.5298C23.3219 11.4445 23.3849 11.3459 23.4454 11.2334C23.5059 11.1212 23.5618 10.9888 23.6133 10.8358C23.6644 10.6831 23.7086 10.4944 23.7461 10.27C23.783 10.0456 23.8066 9.83669 23.8159 9.64346C23.825 9.45023 23.8389 9.28422 23.8577 9.14482C23.8761 9.00572 23.9088 8.89112 23.9554 8.80131C24.002 8.7115 24.0858 8.65314 24.2071 8.62622C24.3187 8.60838 24.4745 8.5724 24.6751 8.51827C24.8754 8.46445 25.0663 8.43753 25.2478 8.43753C25.4293 8.43753 25.5781 8.48924 25.6949 8.59236C25.8113 8.69577 25.8416 8.89535 25.7856 9.192C25.7575 9.30872 25.7321 9.47957 25.7088 9.70394C25.6855 9.92861 25.6646 10.1778 25.6459 10.4517C25.6271 10.726 25.6202 11.0087 25.625 11.3006C25.6295 11.5927 25.6504 11.8642 25.6879 12.1158C25.7248 12.3674 25.7832 12.583 25.8625 12.7626C25.9414 12.9425 26.0512 13.0592 26.1907 13.1131C26.4702 13.221 26.7004 13.221 26.8823 13.1131C27.0638 13.0051 27.2525 12.8349 27.4483 12.6011C27.5321 12.5025 27.6204 12.4191 27.7136 12.352C27.8064 12.2845 27.8833 12.2576 27.9441 12.2712C28.0046 12.2845 28.03 12.3477 28.0209 12.4599C28.0116 12.5724 27.9417 12.7629 27.8113 13.0326C27.5505 13.5715 27.215 13.9286 26.8054 14.104C26.3955 14.2791 25.9112 14.313 25.3524 14.205C25.0454 14.1424 24.7982 13.9985 24.6122 13.7738C24.4258 13.5494 24.2815 13.3136 24.1793 13.0665C24.0767 12.8195 24.0023 12.5927 23.9557 12.3861C23.9091 12.1796 23.8671 12.0674 23.8302 12.0493C23.7833 12.0224 23.7439 12.0154 23.7113 12.029C23.6786 12.0426 23.6438 12.065 23.6066 12.0964C23.5691 12.1279 23.5228 12.1618 23.4671 12.1974C23.4112 12.2334 23.3413 12.2603 23.2575 12.2782C23.0618 12.3142 22.948 12.2848 22.9154 12.1905C22.883 12.0961 22.9272 11.9682 23.0482 11.8064L23.0473 11.8058ZM25.6734 6.14664C25.5708 6.21861 25.4429 6.29481 25.2892 6.37554C25.1355 6.45628 24.9794 6.5216 24.8212 6.57089C24.6627 6.62048 24.5163 6.64497 24.381 6.64497C24.2458 6.64497 24.1551 6.60445 24.1088 6.52372C24.0619 6.43391 24.1088 6.2812 24.2482 6.0656C24.388 5.84999 24.5744 5.64134 24.807 5.43905C25.0396 5.23705 25.2865 5.07769 25.5473 4.96067C25.8077 4.84395 26.0313 4.83941 26.2179 4.94736C26.3108 5.0281 26.3507 5.12486 26.3365 5.23705C26.3226 5.34954 26.2809 5.46173 26.211 5.57391C26.1411 5.6864 26.0549 5.79405 25.9526 5.89717C25.8501 6.00058 25.7569 6.08374 25.6731 6.14633L25.6734 6.14664Z" fill="#0071A3"/>
<path d="M31.3169 8.61267C31.2887 8.7294 31.2098 8.82616 31.0794 8.90236C30.9487 8.97887 30.7999 9.05719 30.6323 9.13823C30.4647 9.21896 30.2922 9.30908 30.1153 9.40765C29.9383 9.50654 29.7891 9.63656 29.6681 9.79834C29.4818 10.059 29.3517 10.3689 29.277 10.7282C29.2023 11.0874 29.1675 11.4312 29.1723 11.759C29.1769 12.0871 29.2189 12.3699 29.2982 12.6078C29.3771 12.8458 29.4772 12.965 29.5986 12.965C29.7474 12.965 29.9035 12.8975 30.0666 12.763C30.2296 12.6284 30.3763 12.4733 30.5067 12.2982C30.6371 12.1231 30.7442 11.9435 30.828 11.7593C30.9118 11.5755 30.9535 11.434 30.9535 11.3348C30.9535 11.2356 30.9487 11.0989 30.9396 10.9238C30.9302 10.7487 30.9327 10.5758 30.9466 10.4049C30.9605 10.2344 30.9886 10.0862 31.0304 9.96042C31.0724 9.83463 31.1444 9.7672 31.247 9.75843C31.3492 9.74966 31.4727 9.72698 31.6173 9.69099C31.7616 9.65501 31.8986 9.65047 32.0293 9.67739C32.1594 9.7043 32.2643 9.79199 32.3436 9.94016C32.4226 10.0883 32.4528 10.3423 32.4344 10.7013C32.4062 11.4288 32.4434 11.9792 32.546 12.3517C32.6482 12.7246 32.8485 12.9426 33.1468 13.0052C33.3516 13.0412 33.5355 12.994 33.6986 12.8637C33.8616 12.7336 34.008 12.5876 34.1387 12.4258C34.2691 12.264 34.381 12.1183 34.4742 11.9879C34.5671 11.8579 34.6418 11.8059 34.6975 11.8331C34.7625 11.86 34.7858 11.9725 34.7674 12.17C34.7489 12.3677 34.6787 12.59 34.558 12.837C34.4367 13.0841 34.2576 13.3312 34.0201 13.5782C33.7827 13.8253 33.4774 14.0161 33.105 14.1509C32.9093 14.2229 32.7278 14.2589 32.5602 14.2589C32.3926 14.2589 32.241 14.2365 32.1064 14.1914C31.9712 14.1467 31.8526 14.0835 31.7501 14.0028C31.6475 13.922 31.5543 13.8322 31.4705 13.7333C31.2842 13.509 31.135 13.2305 31.0234 12.8978C30.9302 13.1134 30.7999 13.3021 30.6323 13.4636C30.4925 13.6075 30.311 13.74 30.0874 13.8612C29.8639 13.9825 29.5892 14.0523 29.2634 14.0702C28.9373 14.0793 28.6299 13.9804 28.3413 13.7738C28.0524 13.5673 27.8222 13.2888 27.6497 12.9383C27.4773 12.5882 27.3844 12.1818 27.3702 11.7188C27.3563 11.2565 27.461 10.769 27.6848 10.2571C27.8337 9.92474 28.0291 9.64201 28.2714 9.40826C28.5137 9.17482 28.7718 8.98371 29.0468 8.83554C29.3215 8.68736 29.5961 8.57941 29.8711 8.51198C30.1458 8.44455 30.3924 8.40645 30.6114 8.39737C30.8301 8.3886 31.0071 8.40433 31.1423 8.44455C31.2772 8.48507 31.3353 8.54131 31.3169 8.61298V8.61267Z" fill="#0071A3"/>
<path d="M21.2464 18.6871C21.2787 18.8278 21.3072 18.9702 21.3314 19.1147C21.3556 19.2593 21.3474 19.4056 21.3072 19.5538C21.2424 19.6475 21.1493 19.7062 21.028 19.7295C20.9063 19.7531 20.779 19.7531 20.6456 19.7295C20.5122 19.7062 20.3824 19.669 20.2568 19.6182C20.1313 19.5674 20.0321 19.5187 19.9595 19.4718C19.8218 19.0893 19.7247 18.6911 19.6681 18.2774C19.6116 17.8637 19.5789 17.4501 19.571 17.0361C19.5629 16.6224 19.571 16.2124 19.5952 15.8066C19.6194 15.4008 19.6518 15.018 19.6923 14.6587C19.7084 14.3935 19.7592 14.1123 19.8442 13.8157C19.9292 13.519 20.0402 13.2321 20.1782 12.9548C20.3158 12.6778 20.4816 12.422 20.6758 12.1876C20.87 11.9532 21.0906 11.7718 21.3374 11.643C21.5843 11.5142 21.8575 11.4458 22.1569 11.438C22.4561 11.4304 22.7762 11.5124 23.1162 11.6838C23.4563 11.8556 23.6786 12.0742 23.7839 12.3397C23.8889 12.6052 23.9115 12.8922 23.8507 13.2003C23.7902 13.509 23.6583 13.8211 23.4563 14.1371C23.2539 14.4534 23.0209 14.7443 22.758 15.0095C22.4949 15.275 22.2156 15.4975 21.9204 15.6772C21.6248 15.8568 21.3477 15.9623 21.0888 15.9935C21.0724 16.4386 21.0724 16.8876 21.0888 17.3403C21.1048 17.7933 21.1574 18.242 21.2467 18.6871H21.2464ZM22.9583 12.2227C22.6428 12.2148 22.3735 12.2928 22.1509 12.457C21.9282 12.6209 21.744 12.8202 21.5985 13.0542C21.4527 13.2886 21.3474 13.5363 21.2827 13.7978C21.2176 14.0594 21.1895 14.2762 21.1977 14.4477C21.2137 14.4401 21.2806 14.4047 21.3979 14.3421C21.5153 14.2798 21.6548 14.1997 21.8169 14.102C21.9788 14.0044 22.1467 13.8873 22.3209 13.7506C22.4949 13.614 22.6446 13.4658 22.7701 13.3055C22.8957 13.1456 22.9825 12.9738 23.0312 12.7903C23.0799 12.607 23.0554 12.4174 22.9583 12.2224V12.2227Z" fill="#0071A3"/>
<path d="M26.0785 14.7638C26.0543 14.8654 25.9856 14.9495 25.8722 15.0157C25.7587 15.0822 25.6295 15.1506 25.4837 15.2207C25.3379 15.2909 25.1882 15.3692 25.0348 15.4551C24.8811 15.5409 24.7513 15.654 24.6464 15.7946C24.4842 16.0211 24.3711 16.2906 24.3063 16.6026C24.2416 16.915 24.2113 17.2135 24.2156 17.4986C24.2195 17.7838 24.2558 18.0296 24.3248 18.2364C24.3934 18.4433 24.4806 18.5467 24.5855 18.5467C24.715 18.5467 24.8506 18.488 24.9924 18.371C25.134 18.254 25.2614 18.1191 25.3748 17.967C25.4883 17.8146 25.5811 17.6586 25.654 17.4986C25.7269 17.3386 25.7632 17.2156 25.7632 17.1297C25.7632 17.0438 25.759 16.9247 25.7514 16.7726C25.743 16.6202 25.7454 16.4699 25.7572 16.3217C25.7696 16.1735 25.7935 16.0447 25.8301 15.9353C25.8664 15.8261 25.9293 15.7674 26.0183 15.7596C26.1072 15.752 26.2146 15.7324 26.3401 15.7009C26.4657 15.6698 26.5849 15.6658 26.6983 15.6891C26.8115 15.7124 26.9028 15.7886 26.9715 15.9174C27.0402 16.0462 27.0665 16.267 27.0505 16.579C27.0263 17.2113 27.0586 17.6897 27.1476 18.0136C27.2365 18.3377 27.4108 18.527 27.67 18.5815C27.8479 18.6126 28.0079 18.5718 28.1495 18.4584C28.2911 18.3453 28.4187 18.2183 28.5322 18.0777C28.6453 17.9371 28.7424 17.8104 28.8232 17.697C28.904 17.5839 28.969 17.5388 29.0177 17.5624C29.074 17.586 29.0946 17.6837 29.0782 17.8551C29.0622 18.0269 29.0011 18.2201 28.8961 18.4348C28.7911 18.6498 28.6353 18.8642 28.429 19.0789C28.2224 19.2939 27.9574 19.4596 27.6337 19.5766C27.4637 19.6392 27.3058 19.6704 27.16 19.6704C27.0142 19.6704 26.8826 19.651 26.7655 19.6117C26.6481 19.5727 26.545 19.518 26.456 19.4478C26.3668 19.3777 26.286 19.2996 26.2134 19.2135C26.0512 19.0184 25.9221 18.7762 25.825 18.4874C25.7436 18.6749 25.6304 18.8388 25.4849 18.9791C25.3636 19.104 25.2057 19.2192 25.0112 19.3247C24.8173 19.4303 24.5783 19.4907 24.2951 19.5062C24.0114 19.514 23.7445 19.4282 23.4935 19.2485C23.2424 19.0689 23.0421 18.827 22.8924 18.5225C22.7426 18.218 22.6615 17.8648 22.6497 17.4626C22.6376 17.0604 22.7287 16.6371 22.9229 16.192C23.0524 15.9032 23.2221 15.6574 23.433 15.4542C23.6432 15.2513 23.868 15.0852 24.1067 14.9564C24.3453 14.8276 24.584 14.7339 24.823 14.6755C25.0617 14.6168 25.2759 14.5839 25.4665 14.576C25.6565 14.5685 25.8101 14.5818 25.9278 14.6171C26.0449 14.6522 26.0954 14.7012 26.0794 14.7635L26.0785 14.7638Z" fill="#0071A3"/>
<path d="M30.1579 15.1735C30.1497 15.2518 30.1416 15.3843 30.1337 15.5718C30.1255 15.7592 30.1213 15.9682 30.1213 16.1983C30.1213 16.4284 30.1295 16.6688 30.1455 16.9186C30.1615 17.1687 30.1897 17.397 30.2305 17.6038C30.2711 17.8106 30.3319 17.9806 30.4126 18.1133C30.4934 18.2461 30.5987 18.3123 30.7282 18.3123C30.9142 18.3123 31.0742 18.2461 31.2076 18.1133C31.3414 17.9806 31.4566 17.8128 31.5537 17.6099C31.6508 17.407 31.7277 17.1787 31.7845 16.9246C31.8411 16.6709 31.8877 16.4233 31.924 16.1811C31.9603 15.9392 31.9848 15.7127 31.9969 15.5019C32.009 15.2911 32.0193 15.1269 32.0272 15.0099C32.0353 14.8693 32.0777 14.768 32.1548 14.7054C32.2317 14.6431 32.327 14.6099 32.4401 14.6059C32.5535 14.602 32.6749 14.6235 32.8043 14.6703C32.9338 14.7172 33.0551 14.7756 33.1686 14.846C33.282 14.9162 33.3752 14.9963 33.4481 15.0861C33.521 15.1759 33.5612 15.2639 33.5694 15.3495C33.5773 15.4665 33.5733 15.6365 33.5573 15.859C33.5407 16.0816 33.5267 16.3314 33.5146 16.6086C33.5025 16.8859 33.4965 17.1708 33.4965 17.4635C33.4965 17.7562 33.5189 18.0256 33.5633 18.2715C33.6078 18.5173 33.6768 18.7281 33.77 18.9038C33.8628 19.0795 33.9944 19.1868 34.1644 19.2258C34.3181 19.2648 34.4234 19.3156 34.4803 19.3779C34.5368 19.4405 34.5429 19.501 34.4984 19.5594C34.4537 19.618 34.3647 19.6631 34.2313 19.6942C34.0976 19.7254 33.9173 19.7214 33.691 19.6824C33.3186 19.6201 33.0312 19.4949 32.8288 19.3078C32.6264 19.1203 32.4767 18.9252 32.3799 18.7223C32.2665 18.488 32.1978 18.2307 32.1733 17.9494C32.068 18.2618 31.9307 18.5312 31.7603 18.7574C31.6148 18.9606 31.4264 19.1342 31.1958 19.2784C30.965 19.423 30.684 19.4717 30.3518 19.4248C30.02 19.3779 29.7468 19.2745 29.5323 19.1145C29.3178 18.9546 29.1439 18.7614 29.0105 18.5349C28.8768 18.3084 28.7778 18.0607 28.7128 17.7913C28.648 17.5219 28.6036 17.2509 28.5794 16.9773C28.5552 16.7586 28.5431 16.54 28.5431 16.3214C28.5431 16.1028 28.5509 15.8998 28.5673 15.7124C28.5833 15.5249 28.6075 15.3649 28.6399 15.2322C28.6722 15.0994 28.7089 15.0135 28.7491 14.9745C28.7978 14.9355 28.8988 14.8926 29.0525 14.8457C29.2062 14.7988 29.3662 14.7734 29.532 14.7695C29.6978 14.7656 29.8457 14.7913 29.9752 14.8457C30.1047 14.9005 30.1655 15.0096 30.1573 15.1735H30.1579Z" fill="#0071A3"/>
<path d="M38.2684 12.6324C38.236 12.9837 38.1791 13.3194 38.0984 13.6396C38.0176 13.9598 37.9223 14.2643 37.8131 14.5531C37.7039 14.8419 37.5844 15.1153 37.4552 15.3729C37.3257 15.6305 37.196 15.8646 37.0665 16.0757C36.7588 16.5752 36.4188 17.0282 36.0467 17.434C36.0467 17.4887 36.0588 17.5589 36.083 17.6448C36.099 17.7228 36.1314 17.8186 36.1801 17.9317C36.2285 18.0451 36.3057 18.1797 36.4109 18.3357C36.6212 18.6638 36.8541 18.8685 37.1091 18.9505C37.3642 19.0324 37.611 19.0403 37.8497 18.9738C38.0884 18.9075 38.2968 18.7905 38.475 18.6224C38.6529 18.4545 38.7745 18.2846 38.8392 18.1132C38.904 17.9335 38.9687 17.8165 39.0335 17.7618C39.0982 17.7073 39.1569 17.6934 39.2095 17.7207C39.2622 17.7482 39.3024 17.8047 39.3308 17.8906C39.3593 17.9765 39.3693 18.0702 39.3614 18.1718C39.2234 18.5232 39.0495 18.8316 38.8392 19.0968C38.75 19.2138 38.645 19.3272 38.5237 19.4364C38.4021 19.5459 38.2687 19.6435 38.1229 19.7291C37.9771 19.815 37.8173 19.8833 37.6434 19.9341C37.4691 19.9849 37.281 20.0061 37.0789 19.9985C36.5607 19.9907 36.1296 19.8697 35.7856 19.6354C35.4417 19.401 35.1643 19.1008 34.954 18.7337C34.7435 18.3669 34.5937 17.9511 34.5048 17.4866C34.4155 17.0221 34.3653 16.5516 34.3532 16.0754C34.3408 15.5991 34.3611 15.1404 34.4137 14.6992C34.4664 14.2583 34.5293 13.8737 34.6019 13.5456C34.6827 13.2021 34.79 12.8625 34.9238 12.5268C35.0572 12.1912 35.223 11.8945 35.4214 11.6369C35.6196 11.3793 35.8543 11.1764 36.1257 11.0279C36.3967 10.8797 36.7147 10.825 37.0789 10.864C37.346 10.9033 37.5765 10.9928 37.7711 11.1334C37.9329 11.2504 38.0702 11.4282 38.184 11.6662C38.2971 11.9045 38.3256 12.2265 38.269 12.6324H38.2684ZM35.9251 16.4034C36.1356 16.0678 36.3299 15.7203 36.508 15.3611C36.6617 15.0566 36.8115 14.7228 36.9573 14.3599C37.1028 13.9967 37.2078 13.6396 37.2728 13.2882C37.3049 13.1165 37.3354 12.9408 37.3639 12.7612C37.392 12.5816 37.4041 12.4155 37.4002 12.2634C37.3959 12.1113 37.3657 11.9825 37.3091 11.877C37.2522 11.7715 37.1591 11.7113 37.0296 11.6956C36.8596 11.6798 36.7077 11.7364 36.5743 11.8655C36.4406 11.9943 36.3274 12.1739 36.2343 12.4041C36.1411 12.6345 36.0661 12.9075 36.0098 13.2238C35.9529 13.5401 35.9127 13.8758 35.8882 14.2311C35.864 14.5864 35.8558 14.9514 35.864 15.326C35.8719 15.7007 35.8921 16.0599 35.9245 16.4034H35.9251Z" fill="#0071A3"/>
<path d="M41.9957 14.7638C41.9715 14.8654 41.9028 14.9495 41.7894 15.0157C41.6759 15.0822 41.5468 15.1506 41.401 15.2207C41.2551 15.2909 41.1054 15.3692 40.9517 15.4551C40.798 15.5409 40.6683 15.654 40.5633 15.7946C40.4011 16.0211 40.288 16.2906 40.2233 16.6026C40.1582 16.915 40.128 17.2135 40.1322 17.4986C40.1361 17.7838 40.1727 18.0296 40.2414 18.2364C40.3101 18.4433 40.3972 18.5467 40.5025 18.5467C40.632 18.5467 40.7675 18.488 40.9091 18.371C41.0506 18.254 41.178 18.1191 41.2917 17.967C41.4052 17.8146 41.4981 17.6586 41.571 17.4986C41.6439 17.3386 41.6802 17.2156 41.6802 17.1297C41.6802 17.0438 41.6759 16.9247 41.6681 16.7726C41.6599 16.6202 41.662 16.4699 41.6741 16.3217C41.6865 16.1735 41.7104 16.0447 41.747 15.9353C41.7833 15.8261 41.8463 15.7674 41.9352 15.7596C42.0241 15.752 42.1312 15.7324 42.2571 15.7009C42.3826 15.6698 42.5018 15.6658 42.6153 15.6891C42.7284 15.7124 42.8195 15.7886 42.8884 15.9174C42.9571 16.0462 42.9834 16.267 42.9674 16.579C42.9432 17.2113 42.9753 17.6897 43.0645 18.0136C43.1534 18.3377 43.3277 18.527 43.5866 18.5815C43.7645 18.6126 43.9246 18.5718 44.0661 18.4584C44.2077 18.3453 44.3351 18.2183 44.4488 18.0777C44.562 17.9371 44.6591 17.8104 44.7401 17.697C44.8209 17.5839 44.8859 17.5388 44.9347 17.5624C44.9909 17.586 45.0115 17.6837 44.9952 17.8551C44.9788 18.0269 44.918 18.2201 44.813 18.4348C44.7078 18.6498 44.552 18.8642 44.3457 19.0789C44.139 19.2939 43.874 19.4596 43.5503 19.5766C43.3803 19.6392 43.2227 19.6704 43.0769 19.6704C42.9311 19.6704 42.7995 19.651 42.6824 19.6117C42.5647 19.5727 42.4616 19.518 42.3726 19.4478C42.2834 19.3777 42.2026 19.2996 42.13 19.2135C41.9679 19.0184 41.8387 18.7762 41.7416 18.4874C41.6605 18.6749 41.5474 18.8388 41.4016 18.9791C41.2802 19.104 41.122 19.2192 40.9278 19.3247C40.7336 19.4303 40.4949 19.4907 40.2118 19.5062C39.9283 19.514 39.6612 19.4282 39.4101 19.2485C39.1593 19.0689 38.959 18.827 38.8093 18.5225C38.6595 18.218 38.5785 17.8648 38.5667 17.4626C38.5543 17.0604 38.6456 16.6371 38.8398 16.192C38.9693 15.9032 39.1393 15.6574 39.3499 15.4542C39.5601 15.2513 39.7849 15.0852 40.0236 14.9564C40.2623 14.8276 40.501 14.7339 40.74 14.6755C40.9786 14.6168 41.1931 14.5839 41.3834 14.576C41.5734 14.5685 41.7274 14.5818 41.8447 14.6171C41.9618 14.6522 42.0126 14.7012 41.9963 14.7635L41.9957 14.7638Z" fill="#0071A3"/>
</g>
<path d="M4.72825 25.1051V24.6364H8.00098V25.1051H6.62882V29H6.10041V25.1051H4.72825ZM10.3655 27.6619V25.7273H10.8683V29H10.3655V28.446H10.3314C10.2547 28.6122 10.1354 28.7536 9.97346 28.87C9.81152 28.9851 9.60698 29.0426 9.35982 29.0426C9.15527 29.0426 8.97346 28.9979 8.81436 28.9084C8.65527 28.8175 8.53027 28.6811 8.43936 28.4993C8.34846 28.3161 8.303 28.0852 8.303 27.8068V25.7273H8.80584V27.7727C8.80584 28.0114 8.8726 28.2017 9.00613 28.3438C9.14107 28.4858 9.31294 28.5568 9.52175 28.5568C9.64675 28.5568 9.77388 28.5249 9.90314 28.4609C10.0338 28.397 10.1432 28.299 10.2313 28.1669C10.3208 28.0348 10.3655 27.8665 10.3655 27.6619ZM14.4399 29.0767C14.2325 29.0767 14.0443 29.0376 13.8753 28.9595C13.7062 28.88 13.572 28.7656 13.4726 28.6165C13.3731 28.4659 13.3234 28.2841 13.3234 28.071C13.3234 27.8835 13.3604 27.7315 13.4342 27.6151C13.5081 27.4972 13.6068 27.4048 13.7304 27.3381C13.854 27.2713 13.9903 27.2216 14.1395 27.1889C14.29 27.1548 14.4413 27.1278 14.5933 27.108C14.7922 27.0824 14.9534 27.0632 15.077 27.0504C15.202 27.0362 15.2929 27.0128 15.3497 26.9801C15.4079 26.9474 15.4371 26.8906 15.4371 26.8097V26.7926C15.4371 26.5824 15.3795 26.419 15.2645 26.3026C15.1508 26.1861 14.9782 26.1278 14.7467 26.1278C14.5067 26.1278 14.3184 26.1804 14.1821 26.2855C14.0457 26.3906 13.9498 26.5028 13.8944 26.6222L13.4172 26.4517C13.5024 26.2528 13.616 26.098 13.7581 25.9872C13.9015 25.875 14.0578 25.7969 14.2268 25.7528C14.3973 25.7074 14.5649 25.6847 14.7297 25.6847C14.8348 25.6847 14.9555 25.6974 15.0919 25.723C15.2297 25.7472 15.3625 25.7976 15.4903 25.8743C15.6196 25.951 15.7268 26.0668 15.8121 26.2216C15.8973 26.3764 15.9399 26.5838 15.9399 26.8438V29H15.4371V28.5568H15.4115C15.3774 28.6278 15.3206 28.7038 15.241 28.7848C15.1615 28.8658 15.0557 28.9347 14.9236 28.9915C14.7915 29.0483 14.6302 29.0767 14.4399 29.0767ZM14.5166 28.625C14.7155 28.625 14.8831 28.5859 15.0194 28.5078C15.1572 28.4297 15.2609 28.3288 15.3305 28.2053C15.4015 28.0817 15.4371 27.9517 15.4371 27.8153V27.3551C15.4157 27.3807 15.3689 27.4041 15.2964 27.4254C15.2254 27.4453 15.143 27.4631 15.0493 27.4787C14.9569 27.4929 14.8667 27.5057 14.7787 27.517C14.692 27.527 14.6217 27.5355 14.5677 27.5426C14.4371 27.5597 14.3149 27.5874 14.2013 27.6257C14.089 27.6626 13.9981 27.7187 13.9285 27.794C13.8604 27.8679 13.8263 27.9687 13.8263 28.0966C13.8263 28.2713 13.8909 28.4034 14.0202 28.4929C14.1508 28.581 14.3163 28.625 14.5166 28.625ZM19.1759 26.4602L18.7242 26.5881C18.6958 26.5128 18.6539 26.4396 18.5985 26.3686C18.5445 26.2962 18.4706 26.2365 18.3769 26.1896C18.2831 26.1428 18.1631 26.1193 18.0168 26.1193C17.8165 26.1193 17.6496 26.1655 17.5161 26.2578C17.384 26.3487 17.3179 26.4645 17.3179 26.6051C17.3179 26.7301 17.3634 26.8288 17.4543 26.9013C17.5452 26.9737 17.6872 27.0341 17.8804 27.0824L18.3662 27.2017C18.6588 27.2727 18.8769 27.3814 19.0203 27.5277C19.1638 27.6726 19.2355 27.8594 19.2355 28.0881C19.2355 28.2756 19.1816 28.4432 19.0736 28.5909C18.9671 28.7386 18.8179 28.8551 18.6262 28.9403C18.4344 29.0256 18.2114 29.0682 17.9571 29.0682C17.6233 29.0682 17.347 28.9957 17.1283 28.8509C16.9095 28.706 16.771 28.4943 16.7128 28.2159L17.1901 28.0966C17.2355 28.2727 17.3215 28.4048 17.4479 28.4929C17.5757 28.581 17.7426 28.625 17.9486 28.625C18.183 28.625 18.3691 28.5753 18.5068 28.4759C18.646 28.375 18.7156 28.2543 18.7156 28.1136C18.7156 28 18.6759 27.9048 18.5963 27.8281C18.5168 27.75 18.3946 27.6918 18.2298 27.6534L17.6844 27.5256C17.3847 27.4545 17.1645 27.3445 17.0239 27.1953C16.8847 27.0447 16.8151 26.8565 16.8151 26.6307C16.8151 26.446 16.8669 26.2827 16.9706 26.1406C17.0757 25.9986 17.2185 25.8871 17.3989 25.8061C17.5807 25.7251 17.7867 25.6847 18.0168 25.6847C18.3406 25.6847 18.5949 25.7557 18.7796 25.8977C18.9656 26.0398 19.0977 26.2273 19.1759 26.4602ZM19.9925 29V25.7273H20.4953V29H19.9925ZM20.2481 25.1818C20.1501 25.1818 20.0656 25.1484 19.9946 25.0817C19.925 25.0149 19.8902 24.9347 19.8902 24.8409C19.8902 24.7472 19.925 24.6669 19.9946 24.6001C20.0656 24.5334 20.1501 24.5 20.2481 24.5C20.3461 24.5 20.43 24.5334 20.4996 24.6001C20.5706 24.6669 20.6061 24.7472 20.6061 24.8409C20.6061 24.9347 20.5706 25.0149 20.4996 25.0817C20.43 25.1484 20.3461 25.1818 20.2481 25.1818ZM23.7345 26.4602L23.2828 26.5881C23.2544 26.5128 23.2124 26.4396 23.157 26.3686C23.1031 26.2962 23.0292 26.2365 22.9355 26.1896C22.8417 26.1428 22.7217 26.1193 22.5754 26.1193C22.3751 26.1193 22.2082 26.1655 22.0747 26.2578C21.9426 26.3487 21.8765 26.4645 21.8765 26.6051C21.8765 26.7301 21.922 26.8288 22.0129 26.9013C22.1038 26.9737 22.2458 27.0341 22.439 27.0824L22.9248 27.2017C23.2174 27.2727 23.4355 27.3814 23.5789 27.5277C23.7224 27.6726 23.7941 27.8594 23.7941 28.0881C23.7941 28.2756 23.7401 28.4432 23.6322 28.5909C23.5257 28.7386 23.3765 28.8551 23.1847 28.9403C22.993 29.0256 22.77 29.0682 22.5157 29.0682C22.1819 29.0682 21.9056 28.9957 21.6869 28.8509C21.4681 28.706 21.3296 28.4943 21.2714 28.2159L21.7487 28.0966C21.7941 28.2727 21.8801 28.4048 22.0065 28.4929C22.1343 28.581 22.3012 28.625 22.5072 28.625C22.7416 28.625 22.9276 28.5753 23.0654 28.4759C23.2046 28.375 23.2742 28.2543 23.2742 28.1136C23.2742 28 23.2345 27.9048 23.1549 27.8281C23.0754 27.75 22.9532 27.6918 22.7884 27.6534L22.243 27.5256C21.9433 27.4545 21.7231 27.3445 21.5825 27.1953C21.4433 27.0447 21.3737 26.8565 21.3737 26.6307C21.3737 26.446 21.4255 26.2827 21.5292 26.1406C21.6343 25.9986 21.7771 25.8871 21.9575 25.8061C22.1393 25.7251 22.3453 25.6847 22.5754 25.6847C22.8992 25.6847 23.1535 25.7557 23.3382 25.8977C23.5242 26.0398 23.6563 26.2273 23.7345 26.4602ZM25.9743 25.7273V26.1534H24.2783V25.7273H25.9743ZM24.7726 24.9432H25.2755V28.0625C25.2755 28.2045 25.2961 28.3111 25.3373 28.3821C25.3799 28.4517 25.4339 28.4986 25.4992 28.5227C25.566 28.5455 25.6363 28.5568 25.7101 28.5568C25.7655 28.5568 25.811 28.554 25.8465 28.5483C25.882 28.5412 25.9104 28.5355 25.9317 28.5312L26.034 28.983C25.9999 28.9957 25.9523 29.0085 25.8912 29.0213C25.8302 29.0355 25.7528 29.0426 25.659 29.0426C25.517 29.0426 25.3778 29.0121 25.2414 28.951C25.1064 28.8899 24.9942 28.7969 24.9047 28.6719C24.8167 28.5469 24.7726 28.3892 24.7726 28.1989V24.9432ZM28.0677 29.0682C27.7524 29.0682 27.4804 28.9986 27.2517 28.8594C27.0244 28.7188 26.849 28.5227 26.7254 28.2713C26.6032 28.0185 26.5422 27.7244 26.5422 27.3892C26.5422 27.054 26.6032 26.7585 26.7254 26.5028C26.849 26.2457 27.0209 26.0455 27.241 25.902C27.4626 25.7571 27.7211 25.6847 28.0166 25.6847C28.1871 25.6847 28.3554 25.7131 28.5216 25.7699C28.6878 25.8267 28.839 25.919 28.9754 26.0469C29.1118 26.1733 29.2204 26.3409 29.3014 26.5497C29.3824 26.7585 29.4229 27.0156 29.4229 27.321V27.5341H26.9001V27.0994H28.9115C28.9115 26.9148 28.8746 26.75 28.8007 26.6051C28.7282 26.4602 28.6246 26.3459 28.4896 26.2621C28.3561 26.1783 28.1984 26.1364 28.0166 26.1364C27.8163 26.1364 27.643 26.1861 27.4967 26.2855C27.3518 26.3835 27.2403 26.5114 27.1622 26.669C27.0841 26.8267 27.045 26.9957 27.045 27.1761V27.4659C27.045 27.7131 27.0876 27.9226 27.1729 28.0945C27.2595 28.2649 27.3795 28.3949 27.5329 28.4844C27.6863 28.5724 27.8646 28.6165 28.0677 28.6165C28.1998 28.6165 28.3192 28.598 28.4257 28.5611C28.5336 28.5227 28.6267 28.4659 28.7048 28.3906C28.7829 28.3139 28.8433 28.2187 28.8859 28.1051L29.3717 28.2415C29.3206 28.4062 29.2346 28.5511 29.1139 28.6761C28.9932 28.7997 28.844 28.8963 28.6665 28.9659C28.4889 29.0341 28.2893 29.0682 28.0677 29.0682ZM30.6906 27.0312V29H30.1878V25.7273H30.6736V26.2386H30.7162C30.7929 26.0724 30.9094 25.9389 31.0656 25.8381C31.2219 25.7358 31.4236 25.6847 31.6707 25.6847C31.8923 25.6847 32.0862 25.7301 32.2524 25.821C32.4186 25.9105 32.5479 26.0469 32.6402 26.2301C32.7325 26.4119 32.7787 26.642 32.7787 26.9205V29H32.2758V26.9545C32.2758 26.6974 32.2091 26.4972 32.0756 26.3537C31.942 26.2088 31.7588 26.1364 31.5258 26.1364C31.3653 26.1364 31.2219 26.1712 31.0954 26.2408C30.9704 26.3104 30.8717 26.4119 30.7993 26.5455C30.7268 26.679 30.6906 26.8409 30.6906 27.0312ZM35.1208 25.7273V26.1534H33.4248V25.7273H35.1208ZM33.9191 24.9432H34.422V28.0625C34.422 28.2045 34.4426 28.3111 34.4838 28.3821C34.5264 28.4517 34.5803 28.4986 34.6457 28.5227C34.7124 28.5455 34.7828 28.5568 34.8566 28.5568C34.912 28.5568 34.9575 28.554 34.993 28.5483C35.0285 28.5412 35.0569 28.5355 35.0782 28.5312L35.1805 28.983C35.1464 28.9957 35.0988 29.0085 35.0377 29.0213C34.9767 29.0355 34.8992 29.0426 34.8055 29.0426C34.6634 29.0426 34.5242 29.0121 34.3879 28.951C34.2529 28.8899 34.1407 28.7969 34.0512 28.6719C33.9632 28.5469 33.9191 28.3892 33.9191 28.1989V24.9432ZM37.2142 29.0682C36.8989 29.0682 36.6269 28.9986 36.3982 28.8594C36.1709 28.7188 35.9955 28.5227 35.8719 28.2713C35.7497 28.0185 35.6887 27.7244 35.6887 27.3892C35.6887 27.054 35.7497 26.7585 35.8719 26.5028C35.9955 26.2457 36.1673 26.0455 36.3875 25.902C36.6091 25.7571 36.8676 25.6847 37.1631 25.6847C37.3335 25.6847 37.5019 25.7131 37.6681 25.7699C37.8343 25.8267 37.9855 25.919 38.1219 26.0469C38.2583 26.1733 38.3669 26.3409 38.4479 26.5497C38.5289 26.7585 38.5693 27.0156 38.5693 27.321V27.5341H36.0466V27.0994H38.058C38.058 26.9148 38.021 26.75 37.9472 26.6051C37.8747 26.4602 37.771 26.3459 37.6361 26.2621C37.5026 26.1783 37.3449 26.1364 37.1631 26.1364C36.9628 26.1364 36.7895 26.1861 36.6432 26.2855C36.4983 26.3835 36.3868 26.5114 36.3087 26.669C36.2306 26.8267 36.1915 26.9957 36.1915 27.1761V27.4659C36.1915 27.7131 36.2341 27.9226 36.3193 28.0945C36.406 28.2649 36.526 28.3949 36.6794 28.4844C36.8328 28.5724 37.0111 28.6165 37.2142 28.6165C37.3463 28.6165 37.4656 28.598 37.5722 28.5611C37.6801 28.5227 37.7732 28.4659 37.8513 28.3906C37.9294 28.3139 37.9898 28.2187 38.0324 28.1051L38.5182 28.2415C38.4671 28.4062 38.3811 28.5511 38.2604 28.6761C38.1396 28.7997 37.9905 28.8963 37.8129 28.9659C37.6354 29.0341 37.4358 29.0682 37.2142 29.0682ZM16.8004 31.7273L15.5902 35H15.0788L13.8686 31.7273H14.4141L15.3175 34.3352H15.3516L16.255 31.7273H16.8004ZM17.4641 35V31.7273H17.967V35H17.4641ZM17.7198 31.1818C17.6218 31.1818 17.5373 31.1484 17.4663 31.0817C17.3967 31.0149 17.3619 30.9347 17.3619 30.8409C17.3619 30.7472 17.3967 30.6669 17.4663 30.6001C17.5373 30.5334 17.6218 30.5 17.7198 30.5C17.8178 30.5 17.9016 30.5334 17.9712 30.6001C18.0423 30.6669 18.0778 30.7472 18.0778 30.8409C18.0778 30.9347 18.0423 31.0149 17.9712 31.0817C17.9016 31.1484 17.8178 31.1818 17.7198 31.1818ZM18.888 35V31.7273H19.3738V32.2216H19.4078C19.4675 32.0597 19.5755 31.9283 19.7317 31.8274C19.888 31.7266 20.0641 31.6761 20.2601 31.6761C20.2971 31.6761 20.3432 31.6768 20.3986 31.6783C20.454 31.6797 20.4959 31.6818 20.5243 31.6847V32.196C20.5073 32.1918 20.4682 32.1854 20.4071 32.1768C20.3475 32.1669 20.2843 32.1619 20.2175 32.1619C20.0584 32.1619 19.9164 32.1953 19.7914 32.2621C19.6678 32.3274 19.5698 32.4183 19.4973 32.5348C19.4263 32.6499 19.3908 32.7812 19.3908 32.929V35H18.888ZM22.7488 31.7273V32.1534H21.0527V31.7273H22.7488ZM21.5471 30.9432H22.0499V34.0625C22.0499 34.2045 22.0705 34.3111 22.1117 34.3821C22.1543 34.4517 22.2083 34.4986 22.2736 34.5227C22.3404 34.5455 22.4107 34.5568 22.4846 34.5568C22.54 34.5568 22.5854 34.554 22.6209 34.5483C22.6564 34.5412 22.6848 34.5355 22.7061 34.5312L22.8084 34.983C22.7743 34.9957 22.7267 35.0085 22.6657 35.0213C22.6046 35.0355 22.5272 35.0426 22.4334 35.0426C22.2914 35.0426 22.1522 35.0121 22.0158 34.951C21.8809 34.8899 21.7686 34.7969 21.6792 34.6719C21.5911 34.5469 21.5471 34.3892 21.5471 34.1989V30.9432ZM25.5676 33.6619V31.7273H26.0705V35H25.5676V34.446H25.5336C25.4569 34.6122 25.3375 34.7536 25.1756 34.87C25.0137 34.9851 24.8091 35.0426 24.562 35.0426C24.3574 35.0426 24.1756 34.9979 24.0165 34.9084C23.8574 34.8175 23.7324 34.6811 23.6415 34.4993C23.5506 34.3161 23.5051 34.0852 23.5051 33.8068V31.7273H24.008V33.7727C24.008 34.0114 24.0748 34.2017 24.2083 34.3438C24.3432 34.4858 24.5151 34.5568 24.7239 34.5568C24.8489 34.5568 24.976 34.5249 25.1053 34.4609C25.236 34.397 25.3453 34.299 25.4334 34.1669C25.5229 34.0348 25.5676 33.8665 25.5676 33.6619ZM27.9545 35.0767C27.7472 35.0767 27.5589 35.0376 27.3899 34.9595C27.2209 34.88 27.0866 34.7656 26.9872 34.6165C26.8878 34.4659 26.8381 34.2841 26.8381 34.071C26.8381 33.8835 26.875 33.7315 26.9489 33.6151C27.0227 33.4972 27.1214 33.4048 27.245 33.3381C27.3686 33.2713 27.505 33.2216 27.6541 33.1889C27.8047 33.1548 27.956 33.1278 28.108 33.108C28.3068 33.0824 28.468 33.0632 28.5916 33.0504C28.7166 33.0362 28.8075 33.0128 28.8643 32.9801C28.9226 32.9474 28.9517 32.8906 28.9517 32.8097V32.7926C28.9517 32.5824 28.8942 32.419 28.7791 32.3026C28.6655 32.1861 28.4929 32.1278 28.2614 32.1278C28.0213 32.1278 27.8331 32.1804 27.6967 32.2855C27.5604 32.3906 27.4645 32.5028 27.4091 32.6222L26.9318 32.4517C27.017 32.2528 27.1307 32.098 27.2727 31.9872C27.4162 31.875 27.5724 31.7969 27.7415 31.7528C27.9119 31.7074 28.0795 31.6847 28.2443 31.6847C28.3494 31.6847 28.4702 31.6974 28.6065 31.723C28.7443 31.7472 28.8771 31.7976 29.005 31.8743C29.1342 31.951 29.2415 32.0668 29.3267 32.2216C29.4119 32.3764 29.4545 32.5838 29.4545 32.8438V35H28.9517V34.5568H28.9261C28.892 34.6278 28.8352 34.7038 28.7557 34.7848C28.6761 34.8658 28.5703 34.9347 28.4382 34.9915C28.3061 35.0483 28.1449 35.0767 27.9545 35.0767ZM28.0312 34.625C28.2301 34.625 28.3977 34.5859 28.5341 34.5078C28.6719 34.4297 28.7756 34.3288 28.8452 34.2053C28.9162 34.0817 28.9517 33.9517 28.9517 33.8153V33.3551C28.9304 33.3807 28.8835 33.4041 28.8111 33.4254C28.7401 33.4453 28.6577 33.4631 28.5639 33.4787C28.4716 33.4929 28.3814 33.5057 28.2933 33.517C28.2067 33.527 28.1364 33.5355 28.0824 33.5426C27.9517 33.5597 27.8295 33.5874 27.7159 33.6257C27.6037 33.6626 27.5128 33.7187 27.4432 33.794C27.375 33.8679 27.3409 33.9687 27.3409 34.0966C27.3409 34.2713 27.4055 34.4034 27.5348 34.4929C27.6655 34.581 27.831 34.625 28.0312 34.625ZM30.8752 30.6364V35H30.3723V30.6364H30.8752Z" fill="#0071A3"/>
<defs>
<clipPath id="clip0_1162_3413">
<rect width="45" height="20" fill="white"/>
</clipPath>
</defs>
</svg>
