<svg width="49" height="48" viewBox="0 0 49 48" fill="none" xmlns="http://www.w3.org/2000/svg">
<g filter="url(#filter0_d_4_3493)">
<g filter="url(#filter1_d_4_3493)">
<path d="M10.1178 29.6198C10.2887 28.9364 10.9026 28.457 11.607 28.457H35.3062C36.0104 28.457 36.6244 28.9364 36.7952 29.6198L38.3303 35.7601C38.5728 36.7289 37.8398 37.6675 36.8413 37.6675H10.072C9.0733 37.6675 8.34049 36.7289 8.58273 35.7601L10.1178 29.6198Z" fill="url(#paint0_linear_4_3493)"/>
</g>
<g filter="url(#filter2_d_4_3493)">
<path d="M11.1753 10.0351C11.1753 9.18729 11.8626 8.5 12.7104 8.5H34.2013C35.0491 8.5 35.7364 9.18729 35.7364 10.0351V25.3858C35.7364 26.2336 35.0491 26.9208 34.2013 26.9208H12.7104C11.8626 26.9208 11.1753 26.2336 11.1753 25.3858V10.0351Z" fill="url(#paint1_linear_4_3493)"/>
<path d="M12.249 10.8333C12.249 10.097 12.8646 9.5 13.624 9.5H32.874C33.6334 9.5 34.249 10.097 34.249 10.8333V24.1667C34.249 24.903 33.6334 25.5 32.874 25.5H13.624C12.8646 25.5 12.249 24.903 12.249 24.1667V10.8333Z" fill="#F1F1F1" fill-opacity="0.44"/>
</g>
</g>
<defs>
<filter id="filter0_d_4_3493" x="-2.5" y="2.5" width="50.877" height="46" filterUnits="userSpaceOnUse" color-interpolation-filters="sRGB">
<feFlood flood-opacity="0" result="BackgroundImageFix"/>
<feColorMatrix in="SourceAlpha" type="matrix" values="0 0 0 0 0 0 0 0 0 0 0 0 0 0 0 0 0 0 127 0" result="hardAlpha"/>
<feOffset dx="2" dy="2"/>
<feGaussianBlur stdDeviation="4"/>
<feColorMatrix type="matrix" values="0 0 0 0 0.286275 0 0 0 0 0.764706 0 0 0 0 0.694118 0 0 0 0.2 0"/>
<feBlend mode="normal" in2="BackgroundImageFix" result="effect1_dropShadow_4_3493"/>
<feBlend mode="normal" in="SourceGraphic" in2="effect1_dropShadow_4_3493" result="shape"/>
</filter>
<filter id="filter1_d_4_3493" x="0.536133" y="20.457" width="45.8408" height="25.2104" filterUnits="userSpaceOnUse" color-interpolation-filters="sRGB">
<feFlood flood-opacity="0" result="BackgroundImageFix"/>
<feColorMatrix in="SourceAlpha" type="matrix" values="0 0 0 0 0 0 0 0 0 0 0 0 0 0 0 0 0 0 127 0" result="hardAlpha"/>
<feOffset/>
<feGaussianBlur stdDeviation="4"/>
<feComposite in2="hardAlpha" operator="out"/>
<feColorMatrix type="matrix" values="0 0 0 0 1 0 0 0 0 1 0 0 0 0 1 0 0 0 0.8 0"/>
<feBlend mode="normal" in2="BackgroundImageFix" result="effect1_dropShadow_4_3493"/>
<feBlend mode="normal" in="SourceGraphic" in2="effect1_dropShadow_4_3493" result="shape"/>
</filter>
<filter id="filter2_d_4_3493" x="3.17529" y="0.5" width="40.5612" height="34.4209" filterUnits="userSpaceOnUse" color-interpolation-filters="sRGB">
<feFlood flood-opacity="0" result="BackgroundImageFix"/>
<feColorMatrix in="SourceAlpha" type="matrix" values="0 0 0 0 0 0 0 0 0 0 0 0 0 0 0 0 0 0 127 0" result="hardAlpha"/>
<feOffset/>
<feGaussianBlur stdDeviation="4"/>
<feComposite in2="hardAlpha" operator="out"/>
<feColorMatrix type="matrix" values="0 0 0 0 1 0 0 0 0 1 0 0 0 0 1 0 0 0 0.8 0"/>
<feBlend mode="normal" in2="BackgroundImageFix" result="effect1_dropShadow_4_3493"/>
<feBlend mode="normal" in="SourceGraphic" in2="effect1_dropShadow_4_3493" result="shape"/>
</filter>
<linearGradient id="paint0_linear_4_3493" x1="13.0123" y1="29.9506" x2="14.8308" y2="39.0613" gradientUnits="userSpaceOnUse">
<stop stop-color="#49C3B1"/>
<stop offset="1" stop-color="#0071A3"/>
</linearGradient>
<linearGradient id="paint1_linear_4_3493" x1="14.8595" y1="11.4872" x2="22.2992" y2="26.8262" gradientUnits="userSpaceOnUse">
<stop stop-color="#49C3B1"/>
<stop offset="1" stop-color="#0071A3"/>
</linearGradient>
</defs>
</svg>
